<svg id="Layer_1" data-name="Layer 1" xmlns="http://www.w3.org/2000/svg" viewBox="0 0 508.65 431.1"><defs><style>.cls-1{fill:#332f1b;}</style></defs><path class="cls-1" d="M361.89,144.9l15.27-29.24,1,.32a11,11,0,0,1-.63,2.47c-4.08,7.94-8.22,15.85-12.34,23.77a15.8,15.8,0,0,0-1.17,2.85c5.1-5.7,8.51-12.39,11.85-19.17,6.49-13.13,12.64-26.56,21.62-38.19,6.44-8.33,14.18-15.65,21.44-23.34a79,79,0,0,1,20.49-15.19,44.57,44.57,0,0,1,6.68-2.82c1.6-.55,2.05-1.31,1.81-3-.82-5.77-1.48-11.56-2.18-17.34a5.53,5.53,0,0,1,.24-2.85c2.09,3.14,1.72,6.87,2.33,10.33s.94,7.29,1.43,11.23c4.54,0,8.08,2.14,11.53,4.84,2.91,2.29,6.57,3.63,9.47,5.94a27.44,27.44,0,0,1,5.66,6.81,4.32,4.32,0,0,1-.37,3.85c-1.12,1.65-2.81,1.19-4.24,0-4.3-3.61-8.54-7.31-12.94-10.8a36.91,36.91,0,0,0-7.62-4.54c-.43,6.68,1.47,12.9,1.36,19.19l-1.26.1c-.85-6.46-1.7-12.92-2.59-19.71-7.28,3.65-13.8,7.84-19.37,13.47a101.59,101.59,0,0,1-7.72,7.1c-8.24,6.76-14.18,15.42-19.76,24.26a110.85,110.85,0,0,0-9.5,18.6c-1.23,3.13-.47,7.1-.32,10.68a22.83,22.83,0,0,0,1.8,7.76L409,109.68l1,.54a16.06,16.06,0,0,1-1.11,2.46c-4.29,6.47-8.46,13-13,19.34-2.12,2.93-2.42,5.85-.73,8.62,3.55,5.85,8.27,10.65,15.23,12.18,5.86,1.3,10.66-1.57,14.85-5.22,8.42-7.33,16.68-14.85,25-22.3,3.14-2.81,3.18-3.82.25-6.67-3.77-3.65-7.56-7.28-11.32-10.94a21.87,21.87,0,0,1-1.61-2l.92-.87c4.94,4.74,9.88,9.48,15.25,14.65,1.2-2.26,2.32-4.22,3.29-6.25C462,102.81,466.72,92.31,471.83,82a158,158,0,0,1,8.44-14.52c1.13-1.77,3-4.42,5.23-3,1.73,1.14,3,4.06,3.12,6.25a16.5,16.5,0,0,1-2,7.79,184.56,184.56,0,0,1-19.87,32.13c-2.27,2.9-4.35,6-6.45,9a5.2,5.2,0,0,0,.69,6.9c4.81,4.67,9.64,9.32,14.45,14,.61.6,1.12,1.3,1.68,2l-.94,1-8.68-8.36c-2.92-2.81-5.85-5.63-8.6-8.26-5.94,6.54-8.23,14.56-10.34,22.55-1.78,6.71-2.45,13.72-4.2,20.44-1.54,5.86-3.83,11.53-5.95,17.23a6.64,6.64,0,0,1-2.49,3.15c-3.11,1.94-3,4-1.37,7,2.09,3.71,3.74,7.67,5.51,11.56a9.16,9.16,0,0,1,.42,2.32l-.95.28-8-16.9c-2.47,1.19-4.69,2.43-7,3.34-6.92,2.65-14.06,3.81-21.44,2.41-6.67-1.27-13.44-2.22-19.94-4.06a50,50,0,0,1-12.25-5.82c-3.84-2.37-3.6-7.21.21-9.62a3.85,3.85,0,0,1,3.16.13c7.91,3.85,15.65,8,23.67,11.64a20.47,20.47,0,0,0,9.12,1.35,93.47,93.47,0,0,0,15.28-2c1.95-.43,3.64-2.43,5.2-4,.39-.38,0-1.81-.32-2.61-1.7-3.81-3.53-7.56-5.29-11.34a4.33,4.33,0,0,1-.46-2.73c3.48,4.29,5.11,9.59,7.93,14.46a13.13,13.13,0,0,0,1.32-1.58A79.25,79.25,0,0,0,441,155.63c.83-5,2.93-9.82,4.45-14.73.34-1.1.64-2.2,1.15-4-1,.71-1.51,1-1.94,1.39-5.5,5.05-10.62,10.6-16.61,15-3.68,2.7-8.63,3.75-13.11,5.22-1.68.56-3.66.25-5.51.27a14.7,14.7,0,0,1-10.65-4c-3.63-3.46-7-7.15-10.68-10.92L377.39,159.8l-1-.61a16.54,16.54,0,0,1,1.08-2.29c3-4.54,6.06-9,9-13.6a4.58,4.58,0,0,0,.72-2.88c-.77-5.25-1.7-10.48-2.59-15.72-.05-.25-.18-.49-.47-1.29-1.74,3-3.17,5.65-4.8,8.19q-6.74,10.53-13.63,21c-1.32,2-3,3.42-5.83,3.09a3.46,3.46,0,0,0-2.51,1.7c-2.81,5.11-5.42,10.31-8.16,15.45a12.78,12.78,0,0,1-1.66,2l-.77-.55c.43-.91.81-1.83,1.27-2.72,2.24-4.31,4.26-8.75,6.81-12.86,1.73-2.78.9-5.09.22-7.79a17.51,17.51,0,0,1-.5-7.29,77.67,77.67,0,0,1,12.66-30.09c2.34-3.41,3.32-7.79,5.8-11.05,6.74-8.83,11-18.93,15.57-28.85,2.74-5.88,5.21-11.89,7.68-17.9a23.17,23.17,0,0,0,1.56-6.59c-6.88,6.51-9,15.81-14.72,23.36a8.07,8.07,0,0,1,.37-2.29c1.77-3.73,3.64-7.42,5.48-11.13l-.61-.42c-1.62,2-3.28,4-4.84,6.11-9.28,12.4-16.33,26.11-23.44,39.79-2,3.86-3.64,7.92-5.63,11.8-.65,1.28-1.93,2.23-2.84,3.4a5.15,5.15,0,0,0-1.08,2c-2.05,9.68-6.91,18-12.51,26a55.1,55.1,0,0,1-4.09,5.28c-1.21,1.34-2.68,2.6-4.62.06-3.3,8-6.38,15.48-9.47,23l-1.16-.39a24.62,24.62,0,0,1,.72-2.68c2.61-6.48,5.4-12.89,7.84-19.43a51.74,51.74,0,0,0,1.89-8.43c.79-4.18,1.44-8.39,2.22-12.57.24-1.3.67-2.57,1-3.85l-.77-.29c-1.33,3-2.45,6.16-4,9-2.65,4.84-5.17,9.84-8.5,14.19-5.4,7-12.57,6.35-17.13-1.12l-2.13-3.48c-3.82,6.22-7,12.58-10.68,18.57L288,165c.32-.72.57-1.47.95-2.16,2.88-5.17,5.8-10.32,8.7-15.48,2-3.56,2.34-5.93,1.44-11-1.38,2.26-2.68,4.13-3.75,6.13a53.09,53.09,0,0,1-12.37,16c-3.57,3-12.46,2.66-14.62-2.19-1.1-2.46-2.59-4.74-4.09-7.44l-11.64,15.61-1.12-.81c3.45-5.3,8-9.94,10.91-15.5s4.43-12,6.56-18.05l-.71-.35a15.58,15.58,0,0,0-1.15,1.29c-5.25,7.45-10.18,15.16-15.88,22.25a30.39,30.39,0,0,1-10.29,7.84c-4.14,2-8.5.71-12.36-2.45l-7.71,10.52-.85-.54a6.83,6.83,0,0,1,.52-1.64,18.38,18.38,0,0,1,1.85-2.61c3.59-4.12,5.58-8.26,4.47-14.31-.76-4.14,1.44-8.83,2.39-13.25a19.87,19.87,0,0,0,.84-5c-.43.49-.91.95-1.29,1.47-5.13,7-10.18,14.16-15.42,21.14a81.62,81.62,0,0,1-6.41,7.15c-4.74,5-13.24,3.28-15.91-3.63L186,163.64c-1.68,1.86-3.37,3.71-5.06,5.57l-.85-.46a9.09,9.09,0,0,1,1-2.12c2.88-3.29,5.87-6.48,8.73-9.79a5,5,0,0,0,1.34-2.75c.12-6,.06-11.91.06-17.85-.26.47-.64,1.16-1,1.84-4.92,8.5-11,16.06-19.19,21.57-3.72,2.49-7.82,3.14-12,.32-1.27-.85-2.09-1.32-2-3,.08-.9-.65-1.88-1.1-3l-7,6-.55-.4c.1-.46.05-1.06.33-1.36a19.91,19.91,0,0,1,2.59-2.35,11.89,11.89,0,0,0,4.74-8.14c1.28-7,4.72-13.31,8.52-19.31,5.92-9.32,11.72-18.74,18-27.79,4.2-6,9.39-11.39,13.79-17.31,5.55-7.46,10.78-15.16,16.07-22.8,2.16-3.13,1.52-6.7,1.64-10.12l-1.07-.52c-.76,1.26-1.87,2.44-2.23,3.81-1,3.65-1.56,7.4-2.34,11.1a17.78,17.78,0,0,1-.65,2l-1.14-.21q1-5.86,2-11.72l-.56-.34c-1.75,2.13-3.53,4.24-5.24,6.39-3.75,4.71-7.51,9.41-11.18,14.18-5,6.52-9.84,13.16-14.91,19.63-4,5.12-8.56,9.83-12.3,15.13-4.36,6.17-8,12.84-12.13,19.18-3.44,5.28-7.29,10.31-10.7,15.61-2.08,3.24-3.6,6.84-5.53,10.19-1.39,2.41-3.22,4.57-4.56,7-2.86,5.18-5.51,10.48-8.29,15.71a15.71,15.71,0,0,1-1.64,2.13l-.94-.61,10-19.15c-3.46.15-2.77-2-2.19-3.52,3.3-9,6.12-18.21,10.26-26.8,7.52-15.64,15.8-30.91,23.89-46.26,2-3.86,4.79-7.33,6.76-11.22a107.28,107.28,0,0,0,4.13-10.63l-1-.56c-2.8,2.94-5.86,5.68-8.34,8.86-4.4,5.66-8.56,11.51-12.6,17.44-3.88,5.68-7.22,11.75-11.27,17.3-4.62,6.33-9.78,12.25-14.67,18.39a55.48,55.48,0,0,0-3.71,5.18c-5.29,8.48-10.66,16.91-15.75,25.5-4.62,7.82-8.92,15.83-13.37,23.74-.46.82-1,1.61-1.47,2.41l-1-.43a15.78,15.78,0,0,1,.69-2.11c2.23-4.53,4.56-9,6.7-13.58a8.27,8.27,0,0,0,.24-3.17c0-1.52-.55-3.28,0-4.53,6.32-13.95,12.89-27.78,19.24-41.71,5.43-11.91,10.94-23.8,15.88-35.92,3.75-9.21,6.73-18.74,9.91-28.17,1.32-3.92,2.56-7.78,6.72-9.65.82-.37,2.37-.92,2.48-.73.91,1.51,4.29,1.28,3,4.34-1.61,3.93-2.89,8-4.58,11.88-3.13,7.2-7.47,14.06-9.44,21.55-3,11.26-9.7,20.6-13.94,31.15a2.54,2.54,0,0,0-.19,1.74c1.55-1.91,3.17-3.78,4.65-5.75,4.06-5.43,8-10.94,12.09-16.35q9.35-12.42,18.84-24.73c3.19-4.13,6.53-8.16,9.89-12.17a16.44,16.44,0,0,0,3.85-8c1.46-8.71,3.19-17.37,4.87-26a13.32,13.32,0,0,1,1-2.47l1,.42-5.43,29.2a60,60,0,0,1,6.66-2.94c1.43-.44,3.52-.81,4.49-.09a5.7,5.7,0,0,1,1.9,4.4c-.62,6.5-3.33,12.31-6.8,17.78-8.51,13.43-17.11,26.81-25.53,40.29-2.13,3.42-3.71,7.18-5.61,10.74a11.29,11.29,0,0,1-1.63,2c-1.06,1.21-2.34,2.15-1.78,4.25.25.94-.88,2.24-1.38,3.37l.65.39q6-11,11.93-21.93l1,.45c-.33,1.07-.65,2.15-1,3.23l.29.32a21.53,21.53,0,0,0,1.5-1.67c8.44-11.38,16.9-22.75,25.27-34.18,2.91-4,5.29-8.39,8.48-12.12,4-4.71,8.67-8.87,12.93-13.39a8.76,8.76,0,0,0,2.12-3.92c1.83-8.44,3.47-16.92,5.21-25.38a19.35,19.35,0,0,1,.81-2.4l1.17.29c-1.79,9.17-3.59,18.34-5.4,27.59a3.51,3.51,0,0,0,.82-.15c4.59-2.66,7-1.35,7.5,4.16,1.31,13.42-4.7,23.85-13.23,33.49-7.38,8.34-14.34,17.07-21.4,25.7A130.62,130.62,0,0,0,177,117.7c-3.78,6.07-6.93,12.53-10.33,18.84-1.22,2.26-2.36,4.56-3.5,6.86a7.15,7.15,0,0,0-.19,1.79L184.35,126l.85.77a18.6,18.6,0,0,1-1.85,2.28q-9.37,8.53-18.83,17c-2.32,2.1-2.41,3.25-.45,5.94s3.85,3.5,6,1.55a72,72,0,0,0,10.62-11,199.12,199.12,0,0,0,11.09-17.71c4.6-7.93,8.83-16.08,13.44-24,2.68-4.6,6.3-8.69,8.59-13.45a82.55,82.55,0,0,1,14.89-21.68c4.43-4.6,9.34-8.74,13.87-13.25a9.45,9.45,0,0,0,2.61-4.58c1.3-6.86,2.29-13.78,3.4-20.68.09-.54.25-1.07.38-1.61l.78-.09a7.43,7.43,0,0,1,.35,2.08c-.93,6.33-1.93,12.65-3,19.42,4.24-2.75,7.84-.4,11.2,1.07,2.44,1.08,2.62,4.14,2,6.75A31,31,0,0,1,252.69,68c-3,3.29-6.06,6.53-9.24,9.94l6.37,10.81c.89-1.49,1.51-2.63,2.22-3.72,4.16-6.38,8.28-12.8,12.54-19.12s8.9-12.42,13-18.84c4.6-7.18,8.8-14.61,13.18-21.93q5.63-9.36,11.29-18.69c.95-1.56,4.93-2.23,6.8-1.32,2.24,1.09,1.56,2.75,1.34,4.68C309,20,301.35,26.49,296.07,34.3a212,212,0,0,1-12.83,16.89c-8.11,9.75-14.25,20.74-20.72,31.55-5.82,9.72-12.14,19.15-17.93,28.9a43.74,43.74,0,0,0-4.13,10.49c-1.86,6.63-3.37,13.36-5,20.06a6.09,6.09,0,0,0,.34,3.51l10.73-14.8.88.32a8.68,8.68,0,0,1-.78,2.25c-3.35,4.76-6.79,9.47-10.17,14.22-.55.78-1.32,1.71-1.26,2.53a6.33,6.33,0,0,0,1.32,3.86c.6.59,2.41.39,3.47,0,5.16-1.91,8.49-5.85,11.4-10.36,6-9.35,12.3-18.56,18.46-27.84,1-1.54,1.91-3.16,3-4.66,2.61-3.7,5.57-7.18,7.86-11,4.52-7.66,8.64-15.55,13-23.3,4.61-8.2,9.3-16.35,13.95-24.53a15.12,15.12,0,0,0,.61-1.45,34.8,34.8,0,0,0-3.85-1c-2.79-.39-5.61-.58-8.4-1a7.7,7.7,0,0,1-3.54-1.12c-.84-.67-1.14-2-1.68-3.08.93-.36,1.89-1.07,2.8-1,5.22.3,10.45.69,15.66,1.26,1.93.22,3.05-.23,4-2,2.66-4.94,5.47-9.8,8.22-14.7,1.43-2.56,7.42-2.85,9-.31a3.12,3.12,0,0,1-.22,2.65c-1.75,2.91-3.79,5.64-5.53,8.54-1.29,2.15-2.28,4.47-3.4,6.71L322,47c3.91,0,7.83.16,11.74.05,2.51-.07,5-.73,7.53-.69a4.15,4.15,0,0,1,3.1,1.83c1.73,3.48,1.11,6.75-1.08,10.09-5.74,8.75-11.53,17.49-16.7,26.59-4.88,8.58-9.24,17.48-13.33,26.47-2.09,4.6-3.06,9.7-4.54,14.57l.71.28,5.5-9.35.9.33a12.54,12.54,0,0,1-.76,2.48c-2.42,4.43-5,8.79-7.35,13.24-2.61,4.88-2.14,10-.46,15,1.17,3.45,3.9,3.64,6.46.83,6.92-7.57,11.49-16.57,15.54-25.83s7.61-18.68,11.66-27.92c1-2.36,3.15-4.25,4.71-6.4a23.68,23.68,0,0,0,2.35-3.63c4-8.3,7.82-16.69,11.92-24.95,2-4,4.45-7.72,6.7-11.57a10,10,0,0,0,1.19-2c.63-2.22,1.35-3.12,4.08-2.11,4.12,1.53,5.42,4.41,3.06,8.27-8.29,13.54-16.78,27-24.71,40.72-5.25,9.1-8,19.26-11.19,29.21l.7.3q3.49-8.26,7-16.53l1.08.36a19.42,19.42,0,0,1-.68,2.65c-2.94,7.29-6,14.53-8.83,21.86a66.4,66.4,0,0,0-2,7.45l.68.3c.23-.2.54-.36.67-.61,2.73-5.64,5.5-11.26,8.13-16.94,1.06-2.28,1.64-4.77,2.75-7,1.31-2.64,3-5.07,4.45-7.67,2.53-4.69,5-9.43,7.44-14.15,6.94-13.25,14.27-26.27,24.15-37.62,4.25-4.88,9.09-9.26,13.21-14.24,2.18-2.63,3.41-6.05,5.07-9.11a6.22,6.22,0,0,1,2.1-2.59c-.49,4.05-3,7.32-4.35,11a3.31,3.31,0,0,0,.74.59c5.52,2,5.2,2.42,4.1,8C401.9,66.35,392.25,81.25,384,96.77c-1.91,3.58-4.63,6.72-6.57,10.29-3.11,5.69-6.05,11.49-8.75,17.38-2.46,5.37-4.56,10.91-6.73,16.41a23.56,23.56,0,0,0-.84,3.85ZM276,129.79c1.26-1.66,2.54-3.3,3.77-5,2.94-4,2.93-4,4.69-3.67-2.12,2.9-4.25,5.62-6.16,8.49-1.28,1.91-2.76,3.91-3.25,6.07a62.44,62.44,0,0,0-1.47,11.8c-.05,1.57.76,3.83,1.95,4.64a4.22,4.22,0,0,0,6-.7c1.48-1.78,3.5-3.22,4.66-5.17q8.22-13.89,16-28c1-1.91.75-4.54,1.73-6.52,3.37-6.76,7-13.37,10.57-20q6.24-11.81,12.44-23.63c2.36-4.52,4.66-9.07,7.22-14a40.3,40.3,0,0,1-5.8-.06c-1.74-.29-3.39-1.17-5.13-1.56-3.69-.82-6.45-.14-8.69,3.6-10.18,17-20.8,33.67-31,50.63C279.29,113.63,277.3,121.57,276,129.79ZM242.17,79c-.58.4-.91.61-1.21.84-7.14,5.5-14.35,10.91-21.37,16.55a32.41,32.41,0,0,0-7,7.16c-7.33,11.19-10.71,24-14.38,36.67a64.75,64.75,0,0,0-1.27,7.64,7.06,7.06,0,0,0,2.93-2.12c3-3.32,5.94-6.67,9-9.95a8.26,8.26,0,0,1,2-1.21l.52.79q-6,6.71-12,13.42c-.7.79-1.79,1.68-1.81,2.54,0,1.91-.08,4.24.94,5.63,1.21,1.67,3.59,1.45,5.1-.2s2.82-3.73,4.26-5.57c2.75-3.51,5.56-7,8.32-10.5,4.12-5.25,8.1-10.51,10.79-16.8a38.11,38.11,0,0,1,8.57-12.48c2.5-2.4,5.86-5.07,6.42-8.07.87-4.74,4.22-7.7,5.93-11.69a3.78,3.78,0,0,0,.06-2.86C246.16,85.57,244.2,82.44,242.17,79Zm-1.56-6.22c7.17-9.13,13-16.24,12.09-20.84-6.8.64-7.7,5.81-8.12,11.36l-1.08-.24c-.07-1.39-.14-2.77-.24-4.81-8.7,10.07-15.7,20.71-22.38,31.6C226.6,85.8,232,81.47,237.5,77.2c1.87-1.46,2.24-3,.78-4.93a5.72,5.72,0,0,1-.46-2.18l.81-.13ZM468.25,97.15l.94.49c4.63-6.67,9.45-13.24,12.41-20.89l-.73-.44Q474.56,86.74,468.25,97.15Zm-292.9-35c1.08-2.17,2.16-4.34,3.52-7.09C175.35,57.27,175,57.94,175.35,62.16Z"/><path class="cls-1" d="M82.1,138.28q1.35,9.19,2.71,18.39l.65.27a29.88,29.88,0,0,0,2.43-3.67,87.64,87.64,0,0,0,7.65-29.38c1-10.91,3-21.74,4.67-32.57q2-12.5,4.39-24.9c.45-2.33,1.71-4.5,2.75-7.14l-15.6-9.54.27-.93a9,9,0,0,1,2.24.61c4.59,2.71,9.13,5.49,14,8.41,1-1.31,2-2.48,2.83-3.73,5.82-8.59,14.26-13.76,23.47-17.87a3.69,3.69,0,0,1,2.93.3c.4.23.2,1.62.15,2.48-.47,7.63-6.18,10-12.21,11.75C119.88,52.36,116.51,56,114,61.2l11.28,7.11-.65,1.13-11.82-6.72c-1.19,8.64-2.34,16.78-3.43,24.94q-2.32,17.45-4.55,34.91a144.21,144.21,0,0,1-6.92,28.17,19.53,19.53,0,0,1-9.54,10.94c-2.31,1.26-2.7,2.88-2.3,5.27.74,4.3,1.23,8.65,1.78,13a7.27,7.27,0,0,1-.21,1.78h-1c-.81-5.57-1.61-11.14-2.44-16.83-2.66.32-5.13.68-7.61.9-7.57.68-13.17-2.48-17.61-8.54a14.86,14.86,0,0,1-2.72-8.89c-.42-10.6,2.67-20,8.64-28.71,2.17-3.16,3.52-6.88,5.21-10.37,2.6-5.37,7.17-8.79,11.87-12.09.69-.49,1.39-1,2.15-1.49,1.78,2.78,2.43,5,.26,8.26a302.73,302.73,0,0,0-16.44,27.4c-2.35,4.51-2.94,10-4.09,15.06a4.72,4.72,0,0,0,2.07,5.29c3.06,2.15,5.73,4.85,8.78,7a6.58,6.58,0,0,0,4.18.88c3-.29,4.75-1.17,4.11-4.76-.86-4.77-1.4-9.6-2-14.41a13.78,13.78,0,0,1,0-1.93Z"/><path class="cls-1" d="M349.6,41.3c-1.59-.82-3.43-1.32-4.45-2.51-.46-.53.38-2.82,1.25-3.71,4.76-4.91,9.63-9.72,14.66-14.35a6.7,6.7,0,0,1,4.33-1.15c2.85.06,4.24,2.54,3.05,5.12a8,8,0,0,1-1.8,2.59q-7,6.21-14.15,12.28A22.92,22.92,0,0,1,349.6,41.3Z"/><path class="cls-1" d="M272.33,226.37l-16.81-16.14,4.3-4.17,8.6,7.18V192.35h7.65V213.6l9-7.93,4.16,4.44Z"/><path class="cls-1" d="M227.77,276.68c3.63-3.34,3.63-3.34,3.28-5.94-2.33-.17-5.21,1.22-6.8-1.9l3.57.91c-1.32-1.92-2.48-3.57.76-3.63.27,0,.72-.13.77-.3,1.32-3.85,4.48-2,6.92-2.2,2.66-.21,5.64.59,6.52-2.3,1.7.14,3.13.59,4.39.31,3.5-.79,6.92-1.93,10.41-2.8a3.82,3.82,0,0,1,2.38.46c.21.11.08,1.26-.16,1.82-2.5,5.76-5.11,11.48-7.6,17.25-1.76,4.09-3.4,8.23-5.07,12.36a1.91,1.91,0,0,0,.32,1.71l2.47-2.21c1.27,1.64,5.8,2.85,7.58,2a2.39,2.39,0,0,0,.94-1q3.57-6.76,7.08-13.56c.31-.6,1-1.44.82-1.78-1.68-3,.79-4,1.89-4.89,2.57,0,4.49.1,6.4,0,3.47-.21.39-3.4,2-4.5,2.37,1.16,4.64,2.8,7.15,3.37,3.75.87,3.36-3.52,5.66-5.46-.08,1.63-.14,2.82-.21,4.29,1.53-.2,2.94-.47,4.36-.53a7.72,7.72,0,0,1,2.15.51c-.22.66-.45,1.32-.64,2s-.41,1.69-.68,2.52a6.63,6.63,0,0,1-.76,1.72c-3.43,5-6.89,9.93-10.77,15.51,1.94.22,3.11.46,4.28.47a96,96,0,0,0,25-3.31,11.27,11.27,0,0,1,2.31-.32c1.69-.05,3.81-.65,5,.13s1.2,3,1.64,4.56a1.44,1.44,0,0,1-.35,1.27c-5.43,3.15-6.87,9-9,14.11a256.37,256.37,0,0,1-21.11,39.07c-3.87,6-7.62,12.12-11.95,19,2-.33,3.36-.29,4.47-.77a47.27,47.27,0,0,0,19-14.27c2.3-2.93,4.37-5.54,4.53-9.34,0-.38.69-.72,1-1.08.29.45.79.88.82,1.34a13.32,13.32,0,0,1-.26,2.53c2.52.75,4.5-.23,5.6-3.11,1-2.68,1.69-5.5,2.47-8.26q4.07-14.51,8.12-29a2.82,2.82,0,0,1,.54-1c1.87-2.19,1.87-4.3-.4-6.2,2.49-1.2,4.8-2.39,7.17-3.4a3,3,0,0,1,1.91.34,18.88,18.88,0,0,0,11.86.86c1.93-.46,4.16.18,6.24.47,5.57.75,5.72.92,2.11,5.23-9.07,10.83-15.37,23.3-21.52,35.86-1.78,3.65-3.48,7.35-5,11.1a16.63,16.63,0,0,0-.62,4l.87.28c1.54-1.93,3.05-3.89,4.63-5.78,5.16-6.18,10.25-12.42,15.53-18.49,7.44-8.56,12-18.76,16.85-28.79.94-1.92,1.95-3.81,2.85-5.74.7-1.49,1.28-3,2-4.67,7.48.25,12.67,4.39,16.17,11,2.13,4,1.15,8.26.26,12.24A45.62,45.62,0,0,1,381.33,323c-1.54,2.75,1,6.32-3.05,8.75-2.46,1.47-3,5.89-4.74,8.81s-3.72,5.69-5.71,8.45-4.1,5.42-6.14,8.13c-.39.52-.7,1.1-1.35,2.14a72.32,72.32,0,0,0,8.42-1.08c1.28-.32,2.32-1.64,3.46-2.51a20.71,20.71,0,0,0,3-2.33c2.52-2.82,4.91-5.75,7.48-8.78,2.65,1.19,3.63.81,4.85-2.62a81.48,81.48,0,0,1,27.7-38.06c.37-.28.84-.44,1.21-.73,1-.73,1.9-1.51,2.85-2.26l-.45-.7c.27-.09.64-.33.81-.24,3.49,2,6.55.12,9.55-1.21,7.62-3.36,15.73-3.85,23.84-4.4,2.52-.17,5.07-.19,7.56-.58a15.06,15.06,0,0,0,4.06-1.6c1.3-.65,2.45-1.61,3.79-2.16a10.53,10.53,0,0,1,2.95-.29,10.83,10.83,0,0,1-1.33,2.47,11.83,11.83,0,0,0-2.79,5.45c-1.21,4.85-3.21,9.51-4.93,14.23a21.8,21.8,0,0,1-1.37,2.66l2.95,2.39c3.93-4.68,7.81-9.25,11.63-13.87,1.3-1.57,2.39-3.3,3.64-4.91s2.4-2.87.67-4.82a1.79,1.79,0,0,1,.09-1.8c.32-.33,1.25-.26,1.83-.09,6,1.81,11.89,4.5,18.46,2.9a3,3,0,0,1,1.72.11,6.18,6.18,0,0,1,1.44,1.14c-.45.44-.83,1.13-1.35,1.25-2.06.48-4.17.78-6.25,1.14l-.09.8L506.55,300c.07.36.15.72.22,1.09-.85.58-1.69,1.18-2.55,1.75-1.33.9-3.82.74-3,3.59.09.31-1.36,1.16-2.18,1.61-5.7,3.12-11.84,5.65-17,9.48-4.49,3.31-9.67,5.33-14,8.75-2.07,1.61-4.18,3.17-6.2,4.84-6.71,5.54-11.33,12.27-13.12,21a20.17,20.17,0,0,0,.68,10.68c2.92,9.35,6.26,18.72,7.62,28.34,1.24,8.8.13,17.94,0,26.92a9.87,9.87,0,0,1-.8,2.78,14.58,14.58,0,0,1-1,1.74l1.46-16.17-1.1-.29c-.43.78-.87,1.55-1.27,2.33A28.52,28.52,0,0,1,439.92,422c-1.21.53-2.83.11-4.26.21a17.7,17.7,0,0,1-5-.06l3.28-2.6-23.64,3.06c4.55,3,8.45,5.88,13.74,5.76-3.63.46-7.06.82-10.35-1.67-2.28-1.72-5.19-2.62-7.83-3.84a5.8,5.8,0,0,0-1.66-.37,19.72,19.72,0,0,1-4.49-.84c-6.41,2.39-6.69,2.34-6.75-1.76-5.41-1.35-10.87-2.62-16.28-4.11-1.71-.47-3.44-1.41-3.18-3.73.27-.16.48-.38.59-.34,3.84,1.37,5.56-1.29,7.31-3.84,3.67-5.35,7.31-10.72,11-16.07.95-1.38,1.08-2.54-.25-3.84-1.7-1.64-1.13-3,.72-4.22,2.27-1.48,2.46-3.4.64-5.42a2.88,2.88,0,0,0-.87-.77c-5-2.11-5.15-6.53-5.53-11-.2-2.37-1.29-4.67-2-7l-1,0c-.5,1.78-1,3.56-1.61,5.79-.5-.82-.83-1.36-1.28-2.13a26.22,26.22,0,0,0-2.66,3.87c-2.62,5.85-7.56,9.77-11.69,14.36-3.84,4.28-8.49,4.1-13.37,2.11-.9-.36-1.76-.83-2.68-1.14-3.5-1.2-3.5-1.18-4.75,3.11-.55-1.35-1.15-2.09-1.07-2.77.23-2.16-.23-3.65-2.65-3.66,0-6.72-.27-13.35,3.83-19,1.52-2.09,2.43-4.74,5.47-5.56,1-.26,1.86-1.77,2.25-2.9,1.18-3.44,2-7,3.14-10.45.42-1.32,1.41-2.48,1.74-3.82.53-2.13,1.22-4.41.95-6.52-.43-3.35.86-6.12,1.85-9.07a6.94,6.94,0,0,0-.23-2.67l-.86-.33c-2.47,3.4-5.15,6.67-7.36,10.23-8.62,13.83-17.35,27.6-23.77,42.67-.62,1.46-2.28,2.45-3.31,3.77a25.35,25.35,0,0,0-2.26,3.66c-.75,1.41-1.36,2.88-2,4.33l-.71-.15c-.06-.93-.12-1.86-.2-3-4.29.68-8.57,1.22-12.78,2.14-.93.21-1.56,1.77-2.54,3l-2.18-3.82c4-3.88,5.74-8.21,2.64-12.44,2.85-3.48,3.7-9.58,1.36-12.69-.86,2.55-1.56,4.82-2.4,7s-1.3,4.62-2.75,6.2a157.39,157.39,0,0,1-14,13.9,16.34,16.34,0,0,1-19.5.74,43.18,43.18,0,0,1-5-4.45c-.34-.36-.07-1.39,0-2.1a14.33,14.33,0,0,0,.24-4.78c-1.49,1.82-2.86,3.74-4.48,5.42-2.06,2.15-4.31,4.12-6.49,6.15s-4.58,2.28-7.34,1.83c-.88-.14-1.9.48-2.83.83s-2.63,1.53-3.08,1.19a5.63,5.63,0,0,1-1.5-3.3,9.82,9.82,0,0,1,.54-3.05c-2.45-.66-1.77-2.87-2.48-4.46-2.11-4.72-.88-8.92.64-13.15s3.73-8.12,5.16-12.33c.9-2.63.92-5.56,1.34-8.36l-1.08-.34a16.85,16.85,0,0,0-1.77,2.4c-1.21,2.42-2.28,4.93-3.46,7.37-2.3,4.74-4.3,9.68-7.09,14.13-2.06,3.29-5.13,6-7.84,8.85a20.44,20.44,0,0,0-3.26,3.59l4.29-2.44.59.79c-2.22,1.67-4.22,3.87-6.71,4.89a74.17,74.17,0,0,1-15.38,5c-5.8,1-10-2.79-10.07-7.88,0-.8.19-2,.7-2.3s1.65.17,3.22.42c3.09-7.85,7-15.85,9.27-24.28,1.15-4.25,2.9-8.11,4.35-12.17,2.06-5.75,3.76-11.63,5.8-17.39,2.33-6.57,5.12-13,7.23-19.64,2.53-8,4.62-16.1,6.72-24.2C229.11,279.52,228.26,278.29,227.77,276.68Zm235.85,41.09c-3.17-.69-4.82-.12-5.62,2.32-.18.55-1,.9-1.63,1.25-.43.25-1.19.2-1.37.52-.92,1.61-1.69,1-2.75.11-3.12-2.52-5.55-6.49-10.56-5.32-.22.05-.53-.19-.79-.33-1.71-1-3.39-2-5.14-2.89-3.43-1.75-6.92-3.39-10.34-5.17-1.92-1-3.44-.65-4.39,1.21-2.95,5.77-6,11.51-8.64,17.43-4.9,10.94-10.74,21.56-12.31,33.73-.39,3.07-1,6.12-1.56,9.17-.73,3.9-.41,3.88,3.5,4,3.54.12,5.45-3.54,9.08-3.39l.93-1.91c2.59.76,2.58.75,3.84-1.51a3.33,3.33,0,0,1,.84-1c2.48-1.86,5.48-3.3,7.3-5.66,1.32-1.71,4.05-2.26,4.07-5.56,0-1.89,2.9-3.83,4.66-5.58.39-.38,1.5-.05,3-.05.65-1.07,1.66-2.79,2.73-4.47.66-1,1.4-2,2.1-3l.63.36,1.26-6.32,1-.43,1.44,2.66c1.56-2.6,3-4.79,4.22-7.09.89-1.67,1.58-3.19,3.93-2a1.93,1.93,0,0,0,1.74-.5C457.68,325,460.48,321.55,463.62,317.77ZM248.67,360c1.75-.41,3.35-.46,4.59-1.16a35.56,35.56,0,0,0,4.75-3.71c6.13-5,12.73-9.65,14.11-18.33a1.3,1.3,0,0,1,2.59.16,8.41,8.41,0,0,1-.47,2.78c-.65,2.22-1.45,4.39-2.06,6.62-1.27,4.66-2.4,9.37-3.72,14-.65,2.28-1.6,4.48-2.42,6.72a4,4,0,0,0,1.77-2c4.6-10.45,9.56-20.76,13.63-31.41,3.17-8.3,5.33-17,7.74-25.57,1.19-4.24,0-6.14-4.17-7.43a17,17,0,0,0-4.83-1,3.86,3.86,0,0,0-2.87,1.5c-2,3.3-3.76,6.77-5.64,10.16-.92,1.66-1.92,3.27-2.88,4.9l-.58-.35,4.19-8.69-.9-.4C262.61,323.68,252.93,340.17,248.67,360Zm-1.59-65.37-.67-.41c-.43.39-1,.71-1.25,1.19-1.86,3.84-3.69,7.69-5.45,11.58-3.88,8.55-7.54,17.22-11.66,25.65-2.17,4.43-5.13,8.46-7.73,12.67l-.65-.4,6.12-11.63-.71-.4c-2.16,3.67-4.41,7.3-6.44,11-.78,1.42-2.62,2.83-.85,4.87.17.19-.66,1.41-1.19,2-1.39,1.58-2.87,3.07-4.61,4.9,2.81,1.38,1.75,2.59.5,4a38.81,38.81,0,0,0-2.94,4.59c4.41-.94,4.41-.94,8.18-5.24l1.36,2.71a23.63,23.63,0,0,1,2.85-3.46c2.38-1.91,5.4-3.23,7.24-5.52,2.86-3.57,4.88-7.8,7.42-11.64,1.17-1.77.81-4.58,3.45-5.59.29.51.56.77.54,1-.18,1.6-.42,3.2-.65,4.8l.76.27c6.39-13.93,10.46-28.71,16-43.87-3.5,1.18-6,2.11-8.63,2.87a12.48,12.48,0,0,1-3,.17c.21-.88.35-1.78.64-2.63C246.13,297,246.63,295.79,247.08,294.61Zm193.07,74.71-.66-.05c-2.86,4.46-5.56,9-8.63,13.33a17,17,0,0,1-11.61,7c-5.71.91-10.51-1.69-15.4-3.71-2.64-1.09-4.84-3.22-7.25-4.87.12,2.62.27,5.36,1.69,7a84.6,84.6,0,0,0,10.26,9.85c4.39,3.68,9.3,6.76,13.53,10.59,3.44,3.11,6.65,3.78,10.69,1.6,1.08-.58,2.53-.49,4-.74.06-.67.18-1.53.21-2.38.1-3.57.07-7.15.29-10.72.19-3.15.74-6.28.94-9.44.08-1.17-.7-2.42-.53-3.55C438.39,378.6,439.31,374,440.15,369.32Zm-186.49,5.81a20.72,20.72,0,0,1-1.11,4,25.83,25.83,0,0,1-2.57,3.46c-.49-1.31-1-2.62-1.45-3.93a13.86,13.86,0,0,1-.24-1.48c-1,2.64-1.77,4.72-2.54,6.81l.49.88c1.75-.41,3.82-.37,5.19-1.33,2.72-1.91,5-4.39,7.55-6.59,2.15-1.86,2.34-3.58-.21-5.22C256.27,377.35,256.27,377.35,253.66,375.13Zm158.16,43.12c.22.36.45.71.67,1.06l10.63-5,0-.9c-1.27-.38-3-1.48-3.72-1A83.71,83.71,0,0,0,411.82,418.25ZM225.65,294.63l.72.49,4.6-3.18-2.31-1.77c.62-.68,1.19-1.41,1.86-2a26.31,26.31,0,0,1,2.17-1.64l-4.22-1.72ZM412.81,409.2c-.05-.39-.09-.79-.14-1.18-.87,0-2.06-.37-2.56.06-3.31,2.87-6.47,5.92-9.67,8.9l.63.77ZM371.62,307.55l-1.2.17c.08,1.41-.2,3,.31,4.19C372,315,373.66,318,375.18,321c.36.71.82,1.37,1.23,2.06l.58-.28Zm74.25,2.65.89.71L457,298.27l-1-.84C451.1,300.39,449.72,306.33,445.87,310.2ZM215,327.38l1.15.57,5.67-9.84-.56-.75c-1,.29-2.55.31-2.82.91C217.13,321.22,216.14,324.33,215,327.38Zm42.54-9.21a14.59,14.59,0,0,1,.95,3.77c0,.87-.87,1.74-1.35,2.6l-.9-.32,1.62,5C262.17,321,262.38,322.75,257.57,318.17ZM425,365.59c-3.93,2-4.39,5-1.91,9.54C426.46,372.47,424,369,425,365.59ZM278.11,282.37l.67-.49c-.75-7.14-1.16-8.1-5.87-5.91ZM407.16,403.71c-1.68-.46-2.76-1.06-3.06-.79-2.65,2.42-5.17,5-7.73,7.51l.71.74Zm-4.35-86.59.53.57c5-2.66,9.49-7.17,9.91-10.46ZM358.22,361.5c1.82,3.1,2.64,3.31,5,1.68a5.54,5.54,0,0,1,1-.36c1.23-.53,2.44-1.07,3.66-1.61-.12-.3-.23-.61-.34-.92Zm39.2-22.73c-3.36-.89-7.31,5-7.12,9.89l3.72-2.9-2-2.31c.93-.78,1.74-1.44,2.52-2.12S396.23,339.83,397.42,338.77Zm19.8,72.42c-2.44-1.51-7.21,1.73-10.15,6.93Zm12.87-50.78c-3.36,1.89-3.46,2.75-1.33,9.63C431.12,366.87,429.76,363.68,430.09,360.41ZM320.58,337.26c-1.39,3,.44,7.7,3.76,9.37Zm-3.21-47.67c-.09-.26-.19-.52-.29-.78-1.95.54-4.37.57-5.67,1.8-.88.82-.17,3.33-.17,5.08l1,.11c.58-1.39.91-3,1.81-4.12C314.79,290.71,316.23,290.26,317.37,289.59Zm-69.1-22.12c4.66,1.2,6.22-.31,4.88-5.34C251.36,264.1,249.88,265.71,248.27,267.47ZM228,323.07c-2.51,1.3-5.81,1.5-6.81,4.8C223.64,326.51,227.71,327.46,228,323.07Zm163.32,11.74c3.84-2.77,6.75-7.74,6-10.41Zm10.51-4.19c-4.31.13-5.39,1-6.25,5.33C398.07,334.31,400.88,333.76,401.82,330.62Zm-153.5,24.19c2.83-7.69,2.83-8-.35-7.89C249.79,349.55,244.55,352,248.32,354.81ZM232.23,315.5l-8,4.8.42.7C227.87,320.37,231.17,319.81,232.23,315.5Zm199.52,60.26c3.25-2,3.52-5.17.55-9C432.1,370,431.93,372.83,431.75,375.76Zm10.17,31.18c.53,2.42-.75,5.53,2.77,7.33C446.28,410.7,442.85,409.23,441.92,406.94Zm.7-23.32a8.15,8.15,0,0,0,3.49,9.39c-.91-2.68-1.76-5.22-2.64-7.74A13.1,13.1,0,0,0,442.62,383.62Zm-7-22.53c.53-2.26,1.05-4.53,1.71-7.36C433.55,355.94,433.27,357,435.64,361.09Zm7.63,5.08-1.3.49,4.35,10.54.78-.3ZM318.71,361l.66.4c3.2-2.18,5.62-6.89,4.23-8.1Q321.14,357.12,318.71,361Zm8.61-28.34.89-.31-3.8-10.17-1.24.49ZM438.51,365c2.61-3.31,2.55-5.5,0-7.47Zm-50.06-3.74,1,.45,2.51-6.21-3.1-.7C388.7,357.18,388.58,359.24,388.45,361.3ZM382,409.35l.8.59,7.09-8.69-.95-.76ZM238.09,305.24l-.6-1.42-8.52,3.6c.12.32.25.64.38.95Zm-23.88,73.82-7.71,1.55C208.9,383.4,210.53,383,214.21,379.06Zm53.91-70-.74-.6-3.58,1.15c.47,1.37.93,2.73,1.67,4.87Zm20.42,33.34c1.72-2.71,1-6-1.75-8.8C287.41,336.71,287.92,339.26,288.54,342.38ZM428.12,417c-2.31-2.3-5.23-1.85-7.84,1.27ZM240.34,289.81c-3.66.71-5.16,1.84-5.19,3.88C237.58,293.36,239.89,293,240.34,289.81Zm156.26,102c-.53,2.32-.91,4-1.29,5.62l.7.41c1-1.14,2.05-2.27,3.21-3.54Zm54.12-95.65.1.91,8.15-.63-.14-1.39ZM409.3,323.9l-1-.8-3.47,4.72.93.72C408.51,328.27,408.12,325.44,409.3,323.9Zm-8.54,90.42-.43-.39,8.61-7.74-.69-.75ZM257.17,306.82c-2.21,2.4-1.73,4.14.34,5.44l1-.25C258.06,310.28,257.61,308.55,257.17,306.82Zm-21.3,2.85-.41-.86L229.21,312C231.79,312,234.63,312.54,235.87,309.67Zm46.69-35.11-.81.79c.39,1.35.78,2.69,1.18,4l.83.05c.44-1.07,1.29-2.17,1.19-3.17C284.88,275.62,283.41,275.12,282.56,274.56Zm-36.15,4.23-6.06,2.28.33.89C242.69,281.18,245.45,282.45,246.41,278.79Zm20,12.46.9-.29-1.74-5.89C264,287.79,264.24,289,266.45,291.25Zm-2.3,74.34c2.83-4.87,3-5.68,1.36-7.73C265,360.66,264.58,363.12,264.15,365.59Zm90.13,5.06-.79-.27c-.68,1.32-1.42,2.61-2,4-.15.37.27,1,.42,1.45.49-.29,1.28-.48,1.41-.88A43.27,43.27,0,0,0,354.28,370.65Zm-109.23,1.58-.92-.12-2,8.16.91.22C243.7,377.74,244.38,375,245.05,372.23ZM446,399.51c1,2.27,2.09,4.53,3.24,7C450.3,404.53,449.7,403.22,446,399.51ZM249.36,275.32c-.17-.51-.34-1-.5-1.51l-6.21,2.42.27.75ZM374.7,301.77l-.93.36c1.07,2.71,2.13,5.43,3.2,8.15l.73-.29Zm-30.85,1.11c1.37-4.94.95-6-2.14-5.35Zm-107.32-16c4.42.32,6.05-.32,7.28-3ZM476,316l-4.16,5.26C476.39,319.46,476.74,319,476,316Zm-178.1-11.3-1.33.32,1.89,6.66,1-.26ZM297.09,366l-1-.25L294.51,372l1.25.29ZM468,324.24l-.85-.8-5.39,4.48.81.93Zm-193.8-40,.79-.47q-2-3.41-4-6.81l-.93.56Zm168.63,14.21-1-.83-4.54,5.72.66.55Zm-161,77.27-.81-.18L279.58,382l.93.23C282.13,380.37,281.36,377.9,281.83,375.74ZM251.46,363l-2.65-.13v5l.52.06C250,366.44,250.6,365,251.46,363Zm35,11.33-1.34,6.07.95.2C287.73,378.8,286.91,376.51,286.5,374.31Z"/><path class="cls-1" d="M160.76,387.76c-.37-1.72-.25-3.06-.81-3.48-6.32-4.75-7.38-11.53-7.55-18.71a5.78,5.78,0,0,0-.22-1.13c0-.07-.12-.12-.43-.42-3.18,5.82-5.8,12-11.27,16.19l2.67-4.64-.83-.65c-.6.63-1.62,1.19-1.72,1.89-.59,4.09-4,4.81-6.95,6.15-.41.19-1.2.3-1.22.5-.28,3.23-3.37,3.67-5.25,5.27a2.93,2.93,0,0,1-2.14.72c-3.06-.61-6.84.66-8.76-3.15a1.78,1.78,0,0,0-.68-.54c-8.21-4.91-6.88-9.47-3.6-16.56,2.66-5.72,6-11.1,10.86-15.35a3.36,3.36,0,0,0,.88-1.14q4.38-9.94,8.7-19.92a18.5,18.5,0,0,0,.62-2.24c.84-2.82,1.71-5.63,2.54-8.45a5.27,5.27,0,0,0,.15-2.29C120.19,338.92,109,360.4,100.69,384c-1.91-2.91-3.89,3.78-5.29.21-3,.2-5.52.33-8.08.56a38.91,38.91,0,0,0-4.43.71c-1.57.34-2.13,0-2.34-1.81-.39-3.47,1.22-6.18,2.48-9.14,5.19-12.14,10.14-24.39,15.35-36.52a87.32,87.32,0,0,0,5.28-19.19l-.73-.37c-.89,1.51-1.88,3-2.66,4.54-4.76,9.44-9.75,18.77-14.11,28.39-3.68,8.11-6.73,16.52-9.81,24.88-1.07,2.9-1.95,5.46-5.68,5.31a2.05,2.05,0,0,0-1.4.32c-3.87,4.12-8.7,1.18-13,1.78a42.94,42.94,0,0,1-5.41,0,21.87,21.87,0,0,1,1.35-4.15,27.33,27.33,0,0,0,3.25-12.94,49.51,49.51,0,0,1-2.8,6.6c-3.21,5.34-6.5,10.65-10.13,15.7-.91,1.26-3.18,2-4.9,2.14-3.94.35-7.94.19-11.91.27-6.63.12-11.46-3-15.21-8.21C9.36,381.5,8.1,380,7,378.46a4.35,4.35,0,0,1-.55-1.85c-.12-.76,0-1.56-.15-2.31-.3-1.8-1.46-3.95-.82-5.26s3.24-1.46,4.61-2.58a75.38,75.38,0,0,0,5.75-5.7c3.27-3.28,6.44-6.67,9.86-9.79a72.64,72.64,0,0,1,8.63-6.82c6.07-4,9.37-9.44,9.55-16.82.1-4.6.13-9.3,1.13-13.75,1.07-4.79,2.56-9.59,6-13.54,2.93-3.4,6-6.83,8.09-10.75,2.43-4.61,6.44-6.28,10.73-8.07,2.37-1,3.26.09,3.19,2-.19,5.22-.39,10.46-1.08,15.63-.44,3.33-1.72,6.55-2.69,9.8-.46,1.54-1.2,2.05-3,1.32a58.21,58.21,0,0,0-8.92-2.53c-2.93-.65-4.1.73-3.37,3.75,1.89,7.92,4.3,15.76,5.54,23.78.85,5.55.24,11.35,0,17-.11,3.2-.73,6.37-1.13,9.56l.69.13c1.73-4.87,3.66-9.69,5.14-14.64,2.43-8.08,4.57-16.25,6.83-24.38,1.43-5.16,2.89-10.31,4.23-15.49.23-.89,1.5-2.49-.9-2.68-.09,0-.25-.52-.2-.76.74-4.41-.15-9.19,3-13.05a2.91,2.91,0,0,0,.45-1.88c-.2-3.82,1.27-5,5-5.33,6.63-.55,13.22-1.59,19.85-2.32a11.24,11.24,0,0,1,3.89.45c.24.06.48,1.36.25,1.88-4,9.23-8.5,18.3-12.13,27.68-1.71,4.41-4.68,7.94-6.64,12.13s-4.75,8-6.88,12.13c-2.81,5.44-5.35,11-7.94,16.56-.65,1.41-2.89,2.45-1,4.71,5.54-8.28,11.08-16.44,16.46-24.7,1.83-2.82,3.14-6,4.88-8.87,4.84-8.06,9.8-16.05,14.67-24.08a20.11,20.11,0,0,0,1.3-2.92c1.22-3,1-6.9,5.27-8.14l-3.14-1.32c2.06-2.26,4.55-2.56,6.51-1.6a51.66,51.66,0,0,1,10.46,6.62c1.35,1.12,1.84,3.74,2,5.74.66,9.17-3.65,16.95-7.66,24.68-3.65,7-7.88,13.8-11.71,20.87,1.24-1.46,2.57-2.87,3.72-4.41,5-6.68,10.25-13.18,14.72-20.19a165.42,165.42,0,0,0,9.94-19c2.08-4.43,4.48-8.82,4.43-14,0-1.85,3.66-2.89,5.54-1.77,10.34,6.14,11.37,15.89,10,24.64-2.89,18-13,32.3-24.09,46.1-1.94,2.42-3.76,4.95-5.51,7.51-1.44,2.09-.8,3.55,1.64,3.26,2.91-.36,6.13-.81,8.51-2.33,4.13-2.65,7.9-6,9.51-11a4.16,4.16,0,0,1,1.69-2.27c4.8-2.56,3.64-7.31,4.26-9.37,2.54-5,4.16-8.34,6-11.62,4.75-8.55,9.44-17.16,16.66-24,1.11-1.05,1.88-2.44,2.91-3.58,2.65-2.94,5.23-6,8.08-8.68a3.32,3.32,0,0,1,5.51.76c2.13,4,6,5.7,9.3,8.13,4.26,3.13,5.1,6.18,3.83,11.37-2.34,9.55-8.94,16.05-15.51,22.6-3.29,3.28-6.89,6.25-10.24,9.49a16.29,16.29,0,0,0-3,4.05c-1.09,2-2,1.13-2.7-.05a36.17,36.17,0,0,1-1.9-3.85c-.32.07-.63.09-.64.16-.5,3.95-3.24,7.47-2,11.83.37,1.29-.7,3-.93,4.47-.57,3.69-1.05,7.4-1.56,11.1l1.41.51,15.2-26.56c1.62,0,2.81-1.69,3.64-3.93.74-2,2.26-2.66,4.65-2.31a21.12,21.12,0,0,0-1,1.9,2.29,2.29,0,0,0,0,2l4.5-7.76.62.13c.41,3.28.75,6.56,1.26,9.83.13.84.87,1.57,1.12,2.41a5.25,5.25,0,0,1,.32,2.63c-.4,1.61-1.44,3.11-1.63,4.73-.88,7.71-4.2,14.6-8.45,20.71-2.3,3.3-6.86,5.13-10.61,7.27A15.82,15.82,0,0,1,168,385.51a2,2,0,0,0-1.11-.16C164.83,386.13,162.74,387,160.76,387.76Zm22-69.27-1.1-.34c-1.3,3.88-2.69,7.74-3.85,11.66a6.4,6.4,0,0,0,.17,3.38c.78,2.71,2.11,3.13,3.66.81A84.53,84.53,0,0,0,189,321c1.76-4.06.42-8.16-1.84-12.14l-6.54,19.6-.53-.14Zm-148,62.35C39,369.72,38.35,358.1,40,346.24,32.61,353.9,29.81,373.77,34.76,380.84Zm148.77-6.21-.73.19c-.06,1-.12,1.93-.17,2.9-3.34-.3-4.45,1-3.25,4.44,1.89-1.33,3.85-2.36,5.23-3.91C185.05,377.76,183.94,375.88,183.53,374.63ZM102.8,354.56l-1.22-.9-8.1,11.84.9.62Zm11.49,14.9c4-2.64,7.82-8.9,7.29-11.65Zm72.38,6.07c2.23-2.09,1.37-5.9-2.65-11.65C185,368.14,185.81,371.76,186.67,375.53ZM101.22,285l-3.31,2.22c-.43,1.78-.76,3.18-1.18,4.92l1.94,1.23Zm81.22,21.27c3.15-2.62,4.23-5.87,3.06-8.25C184.54,300.61,183.63,303.08,182.44,306.29Zm-32,6.44,1.24-.53a32.43,32.43,0,0,0-3.63-7.26l-.8.35Q148.83,309,150.43,312.73Zm55.23-3.59.75-.43-1.09-4-3.62,1.87Zm-34.53,11.05-1,.25c-1.45,2.67,1,4,2.74,5.58C172.28,324.08,171.7,322.14,171.13,320.19ZM149,290.4l-1.22.67,3,5.34,1.16-.63ZM145.51,370l.93.43,3.36-7.64-.59-.28Q147.36,366.27,145.51,370Zm30.94-58.37-2.06,3,3.28,2.8C177.15,315,176.82,313.41,176.45,311.64Z"/><path class="cls-1" d="M337.45,262.7c-1.73,1.15-3.7,2.05-5.15,3.48-5.08,5-10,10.13-13.35,16.51-.86,1.64-1.45,1.68-3.08.75a65.14,65.14,0,0,0-9.21-4.15c-.76-.29-1.88.41-3,.68a9.08,9.08,0,0,1-2.57-9.82l2.14,1.36a6.81,6.81,0,0,0,.58-1.38c1.19-6.75,5.57-10,12-11.35,1.67-.35,3.14-1.67,5.06-2.75,2.39,1.73,5.27,1.18,6.33-1.37a22.63,22.63,0,0,0,4.87.16c2.43-.45,4.19.13,5.43,2.26l1.65,2.9.84-.66-2.43,3.73Zm-22.06-1.32c-3.73.18-6.69,1.54-8.08,5.28C310.9,266.33,312.6,263,315.39,261.38Zm5.77,3.21c.12,2.31.24,4.61.35,6.92l1-.07C323.65,269.05,322.12,266.84,321.16,264.59Z"/></svg>