<?xml version="1.0" encoding="utf-8"?>
<!-- Generator: Adobe Illustrator 26.0.2, SVG Export Plug-In . SVG Version: 6.00 Build 0)  -->
<svg version="1.1" id="Layer_1" xmlns="http://www.w3.org/2000/svg" xmlns:xlink="http://www.w3.org/1999/xlink" x="0px" y="0px"
	 viewBox="0 0 499 264" style="enable-background:new 0 0 499 264;" xml:space="preserve">
<style type="text/css">
	.st0{fill:#332F1B;}
</style>
<path class="st0" d="M89.6,153.7c0.5,0,0.9-0.3,1.1-0.7c6.3-9.5,12.4-19.1,16.9-29.6c3.1-7.3,5.3-15,6.5-22.9
	c0.3-2.3,0.8-2.1,2.6-1.9c4.7,0.5,8.9,2.2,12,5.9c0.6,0.7,1.1,1.4,0.3,2.4c-8.2,10.1-13.3,21.8-17.5,34c-1.3,3.6-2.4,7.2-3.6,10.9
	c-0.6,2-0.4,2.2,1.5,3c4.1,1.5,8.6-0.1,10.8-3.9c1-1.9,1.7-3.9,2.1-5.9c1.5,2.8,1.2,5.5,1.4,7.9c0.6,0.4,0.9,0.1,1.2-0.2
	c5-4.1,9.6-8.7,13.5-13.8c1-1.4,2-2.9,2.9-4.5c2.9-4.9,3.1-10.1,1.1-15.4c-1.6-4.1-4.1-7.8-7.3-10.9c-0.8-0.6-1.5-1.3-2-2.2
	c3.1-3,6.7-5.4,10.6-7.2c0.9-0.4,1.4-0.1,1.9,0.7c1.2,1.7,2.3,3.5,3.3,5.4c4.7,9.2,8,19.1,9.7,29.3c1.3,6.8,1.8,13.8,1.5,20.8
	c0,0.5-0.2,1,0.2,1.4c0.7,0.1,0.8-0.5,1-0.9c4.5-9.2,8.1-18.7,9.3-28.9c0.4-2.9,0.5-5.9,0.2-8.9c-0.4-4.1-2.2-7.9-5.1-10.9
	c-1.2-1.3-1.5-1.4,0-3.1c1.8-1.9,3.7-3.7,5.8-5.4c1-0.9,1.7-0.6,2.6,0.2c4.4,3.9,6.3,9,6.4,14.7c-0.1,4.2-0.8,8.5-2.3,12.5
	c-1.9,5.5-4.2,10.9-6.8,16.2c-3.7,7.6-7.5,15.2-11.3,22.8c-1,1.9-1.1,2-3.1,1.7c-3.3-0.4-6.4-2.1-8.4-4.7c-0.8-0.9-1-2.2-0.4-3.2
	c2.4-5.3,3.9-10.9,4.6-16.6c1-8.9,0.2-17.9-2.4-26.4c-0.1-0.3-0.3-0.6-0.5-0.8c-0.3,0.5-0.5,1.1-0.4,1.6c-0.9,8.8-3.8,17-7.1,25.1
	s-7.3,15.9-11.2,23.7c-0.4,1.1-1.5,1.7-2.6,1.4c-2.4-0.3-4.8-1.3-6.8-2.7c-1.1-0.8-1.7-0.9-2.8,0.1c-2,1.9-4.7,2.9-7.4,2.7
	c-3.5-0.2-5.6-2.5-7.4-5.1c-0.4-0.6-0.1-1.3,0-2c1.1-8.3,3-16.5,4.9-24.7c1.2-5.1,2.4-10.2,3.7-15.3c0.2-0.4,0.2-0.8,0.1-1.2
	c-0.4-0.1-0.6,0.3-0.7,0.5c-4.6,14.1-11.4,27.4-18.1,40.6c-1,2-2.1,3.9-3,5.9c-0.3,0.9-1.2,1.5-2.2,1.3c-3.4-0.2-6.6-1.8-8.9-4.4
	c-1.1-1.1-1.4-2.8-0.6-4.1c2.6-5.2,4.7-10.7,6.3-16.4c2.2-7.9,2.5-16.2,0.7-24.2c-0.1-1.1-0.5-2.1-1.2-3c-0.4,2.6-0.7,4.9-1.1,7.2
	c-1.6,8.5-4.8,16.4-8.2,24.3c-2.8,6.4-5.9,12.6-9.1,18.8c-1,1.9-1.2,2-3.3,1.6c-3.9-0.6-7.3-2.8-9.5-6c-0.6,0.6-1.2,1.3-1.5,2.1
	c-1.9,2.7-5,4.3-8.3,4.1c-2.6,0-5-1.3-6.4-3.5c-1.3-2.1-2.2-4.4-2.7-6.8c-1.4-5.7-1.7-11.6-2-17.4c0.1-0.9,0-1.9-0.3-2.8
	c-1.7-0.1-2.4,0.9-2.9,2.3c-2.1,5.9-4.9,11.6-8.4,16.8c-2.6,3.9-5.8,7.4-9.3,10.4c-0.8,0.9-2.2,1-3.2,0.3c-2.4-1.5-4.2-3.8-5.1-6.4
	C2.9,157,2.9,157,4.8,156c4.6-2.6,8.9-5.7,12.8-9.1c3.1-2.7,5.8-5.7,8.3-8.9c5-6.4,5.1-13.2,1.8-20.3c-2-4-4.6-7.6-7.7-10.7l-2-2.2
	c2.6-2.6,5.6-4.7,9-6.2c0.6-0.4,1.5-0.2,1.9,0.5c0,0,0,0.1,0.1,0.1c1,1.4,1.8,2.9,2.4,4.5c3.3,8.1,3.8,17.1,1.2,25.4
	c-0.5,1.2-0.8,2.5-0.9,3.9c0.8,0.3,1.2-0.2,1.7-0.5c12-6.5,18.8-16.8,21.2-30.1c0.4-2.3,0.4-2.3,2.8-2.5c2.5,0,5.1-0.3,7.6-0.7
	c0.8-0.2,1.7-0.2,2.6-0.2c0.1,0.9-0.1,1.8-0.5,2.6c-4.4,13.9-13.6,23.8-26.4,30.5c-1.7,0.8-2.9,2.3-3.2,4.1
	c-0.9,4.3-1.4,8.7-1.5,13.1c-0.1,1.5,0.7,3,2,3.8c4.3,2.9,10.1,1.8,13-2.5c0.2-0.2,0.3-0.5,0.5-0.7c1.2-2.2,1.7-4.6,2.5-7.4
	c1.4,4.6,1.7,9.5,0.8,14.2c0.9,0.2,1.3-0.5,1.8-0.9c5.2-4,10.1-8.3,14.6-13.1c2.5-2.7,4.6-5.6,6.4-8.8c2.5-4.4,2.8-9.8,0.8-14.5
	c-1.7-4.2-4.3-7.9-7.6-11c-0.7-0.7-1.5-1.4-2.4-2.2c3.2-3,6.8-5.5,10.7-7.4c1-0.5,1.5,0,2.1,0.8c2.1,2.9,3.8,6,5.1,9.3
	c3.7,9.6,4.9,19.5,4.7,29.7c-0.1,4.5-0.6,9-1.4,13.4C89.3,152.5,89.1,153,89.6,153.7z"/>
<path class="st0" d="M245.1,232.7c1.3,5.1,1.5,10.5,0.5,15.6c-1.3,6.5-6,10.5-12.5,11.1l-1.3,0.1c-7.5,0.3-11.8-3-13.1-10.5
	c-0.3-1.8-0.5-3.7-0.7-5.5c-0.9,0-1,0.8-1.4,1.3c-2.7,3.9-5.1,8-7.4,12.2c-1.1,2-1.1,2-3.4,1.3c-2.4-0.8-4.6-2.2-6.4-4.1
	c-0.7-0.5-0.8-1.4-0.3-2.1c0.1-0.1,0.2-0.2,0.3-0.3c2.4-2.7,4.9-5.4,7.5-7.9c6-5.6,12.4-10.9,19.1-15.6c0.6-0.5,1.5-0.8,1.9-1.8
	c-1.9-0.6-3.7-1.1-5.5-1.6s-3.7-1.2-5.5-1.9s-1.7-0.7-1.3-2.6c0.3-1.6,1.2-1.3,2.3-1c4.7,1,9.5,1.7,14.4,2c1.3,0.2,2.5-0.4,3.2-1.4
	c0.8-1.1,1.6-2.2,2.5-3.2c0.9-1,0.9-2.5,0.1-3.5c-0.9-1.4-2.2-2.6-3.7-3.5c-2.7-1.6-5.6-2.8-8.6-3.6c-2.6-0.7-5.3-1.3-7.9-2
	c-1.3-0.4-2.7,0-3.6,1c-4.1,4-8,8.1-11.7,12.4c-4.3,5-8.4,10.2-12.5,15.4c-1.3,1.6-2.1,3.5-2.3,5.5c-0.8,6.2-2,12.4-3.9,18.4
	c-0.6,2.1-0.6,2.1-2.8,1.9c-2.2-0.2-4.4-0.6-6.5-1.2c-1-0.3-2.1-0.8-3-1.4c-3-1.8-3.1-2.3-0.5-4.5c3.6-3,6.8-6.4,9.7-10.1
	c1.1-1.4,2.1-2.9,3-4.4c2.2-3.4,2.7-7.6,1.4-11.4c-2.6-8.3-6.5-16.1-11.6-23.1c-0.5-0.7-1.1-1.4-1.9-1.8c0.1,1.7,0,3.3-0.2,5
	c0,0.8-0.6,1.4-1.3,1.6c-7.9,1.9-13.9,6.9-19.5,12.3c-2.7,2.6-5.2,5.4-7.5,8.3c-0.7,0.8-1.2,1.9-1.4,2.9c-0.5,2.8-0.7,5.7-0.6,8.6
	c0,0.2,0,0.5,0.1,0.8c0.4,2.9,1.1,5.8,4.3,6.6c3.2,0.9,6.7-0.2,8.8-2.8c2-2.3,2.7-5.1,3.2-7.9c0.1-1.1,0.4-2.2,0.9-3.2
	c2.1,6.5,2.5,12.9-0.5,19c-2.6,5.3-8.6,8.1-14.4,6.7c-4.2-0.8-7.2-4.3-7.4-8.6c-0.1-2.8,0.2-5.6,0.8-8.4c0.3-1.6,0.7-3.3,1.1-5
	c-0.6,0.8-1.1,1.6-1.4,2.6c-1.7,3.9-3.8,7.6-6.4,11c-1.4,1.9-3.1,3.6-4.9,5.2c-1.4,1.2-2.9,2.1-4.5,2.8c-5.2,2-9.2-0.7-9-6.2
	c0.1-3.5,1.2-7,3.2-9.9c0.6,0,0.8,0.4,1,0.7c1.9,2.5,5.2,3.5,8.2,2.4c0.5-0.2,0.9-0.4,1.4-0.6c10.1-4.8,16.8-17.5,15-28.5
	c-0.8-4.7-3.4-8.8-7.2-11.6c-2-1.4-4-2.7-6.2-3.8c-0.2-0.9,0.4-1.4,0.6-2c1.3-2.4,2.3-4.9,2.9-7.6c0.2-1,0.7-1.4,1.8-1.1
	c7,1.4,13.7,8.8,14.3,15.9c0.5,4.4,0,8.8-1.2,13.1c-0.1,0.5-0.3,1-0.4,1.5c0,0.1,0,0.2,0.1,0.2c3.7-2.3,13.8-18.9,18.7-30.7
	c1.8,0.5,3.4,1.6,4.5,3.1c0.4,0.8,1.4,1.1,2.2,0.7c0.1-0.1,0.2-0.1,0.3-0.2c2.7-1.6,5.7-2.7,8.8-3.3c1.4-0.3,2,0.1,2.4,1.4
	c1.8,4.9,3.1,10.1,3.8,15.3c1.2,6.9,1.9,13.8,2.2,20.7c-0.1,0.8,0.2,1.6,0.7,2.2c4.3-6,7.9-12.4,10.9-19.1c3-6.6,5.5-13.5,7.5-20.5
	c2.8,0.6,4.2,1.7,8.1,5.7c1-1.6,1.9-3.1,2.8-4.7c0.4-1,1.5-1.4,2.5-1c0,0,0,0,0.1,0c10.3,3,17,9.5,19.4,20.1
	c0.1,0.3,0.2,0.6,0.3,0.9c0,0.1,0.1,0.1,0.3,0.2c0.7-0.6,1.1-1.4,1.4-2.3c2.3-5.2,4-10.6,5-16.2c0.1-0.5,0.2-1,0.3-1.5
	c0.1-0.7,0.6-1,1.3-0.8l12.4,3.5c-6.9,9.8-14.9,18.2-23.3,27c4.5,0.1,8.9-0.1,13.4-0.6c-0.4,2.7-1.3,4.9-1.9,7.3
	c-0.3,1-1.1,0.9-1.8,0.9c-3.4-0.1-6.8-0.3-10.1-0.7c-1.4-0.1-2.9-0.3-4.3-0.6c-1-0.2-2.1,0.1-2.7,0.9c-3.1,3-6.1,6.2-8.8,9.6
	c-0.8,0.8-0.9,2.1-0.2,3c1.6,3.1,4,5,7.7,4.9c1.4,0,2.9-0.1,4.3-0.3c5.8-1.1,9.2-4.6,10.8-10.2c0.2-0.8,0.5-1.6,0.7-2.4
	C244.9,232.8,245,232.8,245.1,232.7z"/>
<path class="st0" d="M446.9,102.2c1.7-0.8,3.4-1.6,5.1-2.3c2.6-1.2,5.4-2,8.3-2.3c1-0.1,1.6,0.1,1.8,1.3c0.8,6.1,0.9,12.2-0.7,18.2
	c-0.9,3.3-2.4,6.4-4.5,9.1c-2.7,3.5-5.7,6.8-8.6,10c-3.6,3.9-7,8.1-10.2,12.4c-1.2,1.7-1.2,2.1,0.6,3.2c3.6,2.4,7.5,2.3,11.5,1
	c2.7-0.9,5-2.5,6.9-4.6c4.5-4.7,8.3-10.1,11.1-16c4.7-9.8,8.2-20.1,10.1-30.8c0.4-2.2,0.5-2.2,2.5-2.2c3.5-0.2,6.9-0.6,10.4-1.2
	c0.4-0.2,0.9-0.1,1.3,0.1c-0.5,1.9-1.2,3.8-2.1,5.6c-2.9,6-6.2,11.7-10,17.1c-3.6,5.3-7.4,10.6-10.9,16c-2,3.2-3,6.9-2.8,10.6
	c0,0.4,0,0.9,0.1,1.3c0.5,4,4.2,5.5,7.5,3.1c1.1-0.9,2-2.1,2.5-3.4c1-2.4,1.7-5,2.1-7.6c0.2-1,0.4-1.9,0.6-3.5
	c1.5,3.7,2.1,7.7,1.8,11.7c0,3.7-0.9,7.4-2.4,10.8c-2,4.4-6.5,7.1-11.3,6.6c-4.6-0.4-8.1-4.4-7.8-9.1c0.1-0.7,0.2-1.3,0.4-1.9
	c1.6-4.6,3.2-9.2,4.6-13.9c-0.8,1.4-1.5,2.8-2.3,4.3c-2.7,5.2-5.9,10.1-9.7,14.6c-1.5,1.8-3.3,3.4-5.3,4.7
	c-5.7,3.4-11.6,1.1-13.4-5.2c-0.5-2.1-0.8-4.2-0.9-6.3c0-1.3,0.3-2.5,1-3.6c1.7-3.1,3.6-6,5.7-8.7c2.7-3.7,5.5-7.3,8.2-11.1
	c2.2-2.9,3.8-6.2,4.9-9.7c0.4-1.3,0.3-2.7-0.3-3.9c-1.9-3.7-4.4-7-7.4-9.9c-0.8,1.1-1.3,2.4-1.5,3.8c-0.4,1.3-0.9,1.8-2.3,1.6
	c-4.3-0.6-8.6-1.1-12.9-1.5c-3.5-0.3-3.4-1-3.8,3c-1.7,17.9-6.7,35.2-14.7,51.3c-0.9,1.7-1,1.9-2.9,1.4c-3.8-0.8-7.1-3-9.4-6.2
	c-1.1-1.5-1.1-1.5,0.3-3c5.2-5.2,9.8-10.8,13.9-16.8c5.9-8.8,9-18.6,10.5-28.9c0.2-1.1-0.1-1.6-1.2-1.7c-3.1-0.4-6.2-0.8-9.3-1.2
	s-6.2-0.7-9.4-1.1c-0.9-0.3-2,0.2-2.3,1.2c0,0,0,0.1,0,0.1c-0.8,2.3-1.9,4.5-3.5,6.4c-3.5-2.6-7.5-4.4-11.7-5.5
	c-2.9-0.9-6-1.2-9-0.7c-2.4,0.5-2.7,0.9-2,3.3c1,3.6,2.8,7,5.1,9.8c1.9,2.4,3.8,4.8,5.7,7.2c1.5,1.8,2.8,3.8,3.9,5.9
	c2.4,4.4,3,9.5,1.7,14.3c-2.5,8.7-8.2,14.5-17.1,16.7c-1.9,0.4-3.9,0.5-5.8,0.1c-5.1-0.7-9.1-4.7-9.5-9.8c-0.8-6.5,0.6-13,4.1-18.5
	c0.1-0.1,0.3-0.2,0.4-0.3c0,1.4,0,2.8,0,4.2c0.1,7.2,3.6,11.3,10.7,12.1c5.2,0.6,10-0.6,13.9-4.3c1.9-1.8,2-2.3,0.9-4.6
	c-1.4-2.8-3.2-5.4-5.5-7.6c-2.9-3-5.9-5.8-8.9-8.8c-1.8-1.7-3.3-3.6-4.6-5.7c-2-3.2-2-7.2-0.1-10.4c1.6-2.7,3.7-5.1,6.4-6.8
	c7.5-5.2,16.2-8.3,25.4-9c0.9-0.1,1.9,0,2.7,0.4c1.2,0.6,2.7,0.4,4,0.5c13.2,0.7,26.4,1.4,39.8,0.3c0.2,1.5-0.7,2.7-0.8,4
	c-0.1,0.2-0.2,0.5,0,0.6C446.6,102.5,446.8,102.3,446.9,102.2z"/>
<path class="st0" d="M53.5,196.4c4.7-2.8,9.9-4.8,15.2-5.9c1.8-0.4,1.8-0.4,2,1.5c0.5,6.7,0.6,13.4,0.2,20.1
	c-0.2,9.6-1.6,19.1-4,28.4c-0.3,1.2-0.7,2.4-1.1,3.6c-0.1,0.4-0.2,0.9,0.3,1.1c0.4,0.2,0.9,0.1,1.2-0.2c0.1-0.1,0.3-0.2,0.4-0.3
	c5.1-4.5,10-9.1,14-14.7c0.8-1.1,1.5-2.3,2.1-3.4c3.1-5.3,3.7-11.6,1.8-17.4c-1.1-3.3-2.5-6.5-4.2-9.5c-0.5-0.8-0.9-1.6-1.4-2.6
	c4.2-2.5,8.7-4.5,13.4-5.7c1.1-0.3,2.3-0.6,3.5-0.8c2.3-0.4,2.3-0.4,2.4,1.8c0.3,4.5,0.4,9,0.3,13.5c-0.3,10.7-1.1,21.3-3.4,31.8
	c-0.5,2.2-1.1,4.4-1.7,6.6c-0.2,0.5,0,1,0.4,1.3c0.4,0.2,0.9,0.1,1.2-0.2c8.3-6.9,15.7-14.5,18.6-25.4c2-7.7,0.1-14.2-6-19.5
	c-1.5-1.3-1.6-1.2-0.4-2.8c1.7-2.1,3-4.5,4-7.1c0.7-1.9,0.9-1.9,2.8-1.3c2.8,0.9,5.2,2.7,6.9,5c2.8,3.6,3.9,8.3,3,12.7
	c-0.9,4.3-2.5,8.5-4.7,12.3c-4.7,8.6-10.1,16.7-16.2,24.4c-3.5,4.6-7.3,8.9-11,13.4c-0.9,1.3-2.6,1.9-4.2,1.3
	c-3.6-0.7-6.8-3-8.4-6.3c-0.9-1.7-0.9-1.7,0.6-2.9c3.4-3.1,6.5-6.5,9.1-10.2c5.9-8.2,6.8-17,3.6-26.3c-0.4-1.1-0.8-2.2-1.2-3.3
	c-0.1-0.2-0.3-0.4-0.7-0.8c-0.2,1.3-0.3,2.3-0.4,3.4c-1.2,9-4.8,17.1-9.9,24.5c-5.5,7.9-11.9,15.1-19,21.5c-0.6,0.7-1.6,0.9-2.5,0.7
	c-4.5-0.9-7.3-3.6-8.8-7.9c-0.4-1-0.1-1.5,0.8-2c5.7-3.4,9.7-8.4,12.8-14.2c2.8-5.1,3.3-11,1.6-16.5c-1.7-5.8-4.3-11.3-7.8-16.2
	c-1.1-1.6-2.4-3.1-3.9-4.3c-0.3,0.9,0.3,1.4,0.5,2c1.5,3.9,1.4,8.3-0.2,12.1c-1.4,3.3-3.1,6.4-5.1,9.4
	c-9.1,13.3-19.6,25.7-31.4,36.7c-0.8,0.9-2.1,1.2-3.2,0.7c-3.7-1.1-5.8-4-7.5-7.2c-0.3-0.6-0.1-0.9,0.4-1.3s0.9-0.7,1.4-1.1
	c5.4-4.6,9.7-10.3,12.5-16.8c1.6-3.5,1.9-7.5,0.9-11.2c-2.4-9-6.1-17.3-12.5-24.1c-0.1-0.2-0.2-0.4-0.3-0.6c0.6-0.6,1.4-1.1,2.2-1.5
	c3.9-2.1,8.1-3.5,12.5-4.1c1.8-0.3,1.9-0.3,2,1.5c0.3,4.9,0.6,9.8,0.4,14.8c-0.3,11.6-1.2,23.2-3.9,34.6c-0.5,2.2-1.2,4.4-1.8,6.6
	c-0.2,0.7-0.7,1.4-0.4,2.1c0.8,0.4,1.2-0.2,1.6-0.6c7.7-7.8,14.5-16.2,19.2-26.1c1.9-4.1,3.4-8.3,3.1-13c-0.2-3.5-1.7-6.8-4.4-9.2
	l-0.9-0.9c-1.8-1.6-1.8-1.6-0.4-3.5c1.4-1.9,2.5-4,3.4-6.2c0.7-1.6,0.7-1.6,2.4-1.1c2.7,0.8,5.1,2.4,6.9,4.6
	C52.3,194.8,52.8,195.5,53.5,196.4z"/>
<path class="st0" d="M23.5,17.3c0.7-2,1.4-3.9,2-5.9s1.1-4.1,1.6-6.2c0-0.7,0.6-1.1,1.3-1.1c0,0,0.1,0,0.1,0
	C36.9,4.3,45,5.4,52.6,9.3c3.2,1.6,6.1,3.8,8.4,6.6c5.1,6.2,5.4,15,0.8,21.5c-1.7,2.3-3.6,4.5-5.8,6.4c-2.5,2.2-4.7,4.6-6.8,7.2
	c-1.7,2-3,4.3-3.9,6.8c-0.7,2-0.3,2.7,1.7,3.4c4,1.1,8.4-0.4,10.7-3.9c0.9-1.5,1.7-3.1,2.3-4.8c1.4,2.8,1.2,5.6,1.4,8.2
	c0.8,0.3,1.2-0.1,1.6-0.4c5.9-3.7,11.2-8.3,15.8-13.6c1-1.2,1.9-2.4,2.8-3.7c3.2-4.5,3.5-9.4,1.8-14.5c-1.5-4.2-3.9-8-6.9-11.2
	c-1.6-1.8-3.3-3.6-5.1-5.5C74,9.3,77,7.3,80.3,5.8c0.8-0.4,1.7-0.2,2.2,0.4c1.9,1.9,3.4,4.3,4.2,6.9c2,5.7,2.4,11.9,1.3,17.8
	c-0.2,0.8-0.2,1.6-0.4,2.4c0.7-0.8,1.3-1.8,1.6-2.9c3.3-7.5,5.3-15.6,5.7-23.8c0.1-2.3,0.2-2.3,2.3-2.1c5.2,0.4,10.1,2.6,13.9,6.2
	c6,5.9,8.4,17.9,0.1,25.8c-2.7,2.5-5.7,4.6-9,6.1l-2.5,1.2c0.4,0.9,1.4,1.1,2.1,1.5c6.2,4,7.6,9.3,4,15.7c-2.9,5.2-7.5,9.4-13,11.8
	c-1.3,0.6-2.7,1-4.1,1.2c-3.8,0.7-7.5-1.3-9-4.8c-1-2.2-1.5-4.5-1.7-6.9c0-1.2-0.2-2.5-0.5-3.7c-1,0.4-1.3,1.3-1.7,2
	c-2.8,4.3-6.1,8.1-10,11.4c-2.1,1.7-2.4,1.7-4.6,0.1c-1.1-0.9-2.1-1.9-3-3.1c-0.9,0-1.2,0.7-1.7,1.1c-2.7,2.1-6,3.3-9.4,3.4
	c-4.3,0.3-8-3-8.3-7.3c0-0.3,0-0.7,0-1c0.2-3.2,1.2-6.3,3-9c2.2-3.2,4.7-6.2,7.4-9c1.3-1.3,2.4-2.6,3.4-4.1c-0.1-0.4-0.5-0.7-1-0.7
	c-4-0.3-7.9-0.6-11.9-1c-1.4-0.1-1.7,0.7-2.2,1.7c-4.4,9-10.1,17.3-16.9,24.7c-1.4,1.6-2.9,3.1-4.4,4.6c-1.3,1.3-1.5,1.3-3,0.1
	c-2.3-1.9-4-4.4-5-7.3c-0.5-0.9-0.2-2.1,0.8-2.6c0.1,0,0.2-0.1,0.2-0.1c4.1-2.4,8.1-4.9,12-7.6c4-2.6,7.7-5.6,11-8.9
	c1.4-1.4,2.5-3,3.5-4.7c-5.3-0.8-10.4-0.7-16-0.9c1.2-2.1,2.2-3.8,3.3-5.5c0.6-0.9,1.7-0.5,2.6-0.4c3.5,0.5,7,1.1,10.5,1.7
	c0.3,0.1,0.7,0.1,1.2,0.2c0.6-2.6,0.6-5.2,0.2-7.8c-0.5-3.9-1.7-7.6-3.5-11.1c-0.3-1-1.3-1.5-2.3-1.3c0,0-0.1,0-0.1,0
	c-2.2,0.4-4.3,0.8-6.5,1.1C24.8,17.5,24.2,17.8,23.5,17.3z M90.9,62.1c3.8,0.1,7.6-0.8,10.9-2.7c1.3-0.7,2.3-1.7,3.1-2.9
	c1.4-1.8,1-4.4-0.8-5.8c-0.1-0.1-0.2-0.1-0.2-0.2c-1.3-0.9-2.8-1.7-4.3-2.2c-4.7-1.5-9.4-2.7-14.3-3.5c-1-0.2-1.3,0.2-1.7,1
	C82.8,48,81.8,50,80.7,52c-1.6,2.5-0.8,4.4,0.8,6.4c1.1,1.4,2.7,2.4,4.4,2.9C87.4,61.9,89.2,62.1,90.9,62.1z M100.6,16.5
	c-1.2,2.2-2.3,4.3-3.4,6.2s-2.2,4-3.4,5.9s-2.6,4-3.9,5.9s-2.8,3.5-4,5.8c6.3-0.2,12.3-0.3,18.1-2.2c0.9-0.3,1.9-0.7,2.7-1.3
	c2-1,3.2-3.2,3.1-5.4C109.8,24.8,106.5,20.1,100.6,16.5z M44.3,17.7c0.2,6.9-1.6,13-3.9,19.2C45.1,38,49.6,39,54.1,40
	c0.5,0.1,1-0.2,1.2-0.7c2.5-4.2,3.4-11-0.9-15.6C51.8,20.9,48.4,19.2,44.3,17.7z"/>
<path class="st0" d="M291.8,156.4c4.7,0.7,7.8-0.9,9.9-4.8c1.1-2.3,1.8-4.6,2.3-7.1c1.7,3.8,1.3,7.3,1.3,10.7c0.4,0.1,0.9,0,1.2-0.3
	c4.8-2.9,9.4-6.1,13.9-9.4c9.1-6.7,11.8-15.5,9.6-26.2c-0.5-2.6-1.3-5.1-2.3-7.5c-0.2-1-1.2-1.5-2.2-1.3c-0.1,0-0.1,0-0.2,0.1
	c-2.2,0.4-4.5,0.7-6.7,1c-0.3-0.3-0.3-0.7-0.1-1c2-3.8,3.4-7.8,4.3-11.9c0.2-1.2,0.7-1.5,1.8-1.5c7.8,0.3,15.4,1.5,22.5,4.8
	c2.4,1.1,4.6,2.5,6.6,4.3c8,7,8.6,17.7,1.6,25.6c-3.3,3.8-7.8,6.4-12.8,7.3c-1.5,0.2-2.8,1.2-3.4,2.6c-1.7,3.3-3,6.8-4,10.4
	c-0.5,1.8-0.2,2.2,1.5,2.8c6,2,12.5-1.3,14.6-7.2c0.3-0.8,0.1-1.9,1-2.6c1.4,4.3,1.5,9,0.1,13.3c-1.2,3.8-3.4,6.6-7.5,7.6
	c-3.5,1.1-7.2-0.3-9.1-3.3c-2.4-3.4-3-7.3-2.9-11.4c0.2-4.1,0.7-8.1,1.6-12.1c-0.2-0.1-0.3-0.3-0.4-0.3c-3.7-0.5-3.7-0.5-5.2,3
	c-3.2,7.4-7.2,14.4-12.9,20.3c-1.1,1.2-2.4,2.2-3.5,3.3c-0.9,0.9-1.6,0.7-2.4,0c-1.7-1.3-3.1-3-4.1-4.8c-0.3-0.8-0.8-1.6-1.4-2.3
	c-0.5,0.6-0.9,1.4-1.2,2.1c-1.2,2.4-3.1,4.3-5.5,5.4c-3.9,1.6-7.4,0.5-9.6-3.2c-0.4-0.6-0.5-1.5-1.2-2c-0.9,0.6-1.9,1.4-2.8,2
	c-3.2,2.1-6.7,3.7-10.7,3.6c-3.9,0.1-7.4-2.2-8.8-5.8c-1.3-3.1-1.7-6.4-1.2-9.7c0.7-5.6,2.2-11.2,4.6-16.3c2.3-5.4,5.2-10.5,8-15.6
	c2-3.6,4.1-7.3,5.8-11c1.4-2.8,2.4-5.8,3-8.9c0.1-1,0.5-1.7,1.8-1.6c5.9,0.4,11.4,2,15.9,5.9c4.5,3.7,6.9,9.4,6.3,15.3
	c-0.5,7.8-3.3,15-6.8,22c-2.5,5.1-5.7,9.9-9.4,14.2C292.4,155.2,292,155.8,291.8,156.4z M287.9,153.4c0.4,0.2,0.9,0.2,1.2-0.1
	c2.2-1.4,4.1-3.3,5.6-5.5c3.6-5,5.8-10.9,6.2-17c0.6-7.4-2.4-14.7-8-19.5c-1.5-1.3-1.6-1.3-2.6,0.4c-3.6,5.9-7.6,11.4-12.2,16.6
	c-2.5,2.9-4.8,5.9-6.9,9.1c-2.1,3.3-3.8,6.8-4.9,10.6c-0.4,1.2-0.2,2.5,0.6,3.5c1.7,2.2,4.3,3.7,7.1,4.1c3.1,0.5,6.3,0.4,9.4-0.2
	c2.1-0.3,2.1-0.4,1.6-2.4c-1.1-4.1-1.8-8.3-2.6-12.4c-0.1-0.7-0.5-1.6,0.7-1.8c2-0.4,4-0.7,6.1-0.8
	C288.1,143,287.7,148.2,287.9,153.4L287.9,153.4z M332.1,134.4c1.6,0,3.3,0,5,0c2.6,0,5.2-0.1,7.9-0.4c1.5-0.2,3-0.5,4.4-1
	c3.8-1.4,5.2-4,4.5-8c-0.1-0.7-0.3-1.4-0.5-2c-2.9-7-8.6-10.6-15.6-12.6c-0.7-0.2-1.1,0.1-1.2,0.8c0,0.4-0.1,0.8-0.1,1.3
	c-0.5,6.6-1.8,13.1-3.9,19.4C332.2,132.6,332.1,133.4,332.1,134.4L332.1,134.4z"/>
<path class="st0" d="M248.5,34.8c-0.7,3.2-1.9,6.2-3.7,8.9c-0.4,0.8-1.4,1.1-2.2,0.8c-1.6-0.4-3.1-1-4.5-1.8c-2.7-1.5-5.1-3.3-7.7-5
	c-1.1-0.8-2.3-1.6-3.5-2.2c-0.8,1.4-0.7,3-1,4.5c-0.7,3.9-1.9,7.7-3.4,11.4c-0.7,1.4-0.6,3,0.1,4.3c1,2.3,3,4,5.4,4.7
	c4.6,1.2,9.1,1.1,13.3-1.3c2.7-1.6,5.2-3.5,7.4-5.8c0.6-0.6,1-1.4,2-1.8c-0.9,4-2.8,7.5-4.6,10.9c0.2,0.3,0.3,0.4,0.5,0.3
	c7.6-3.7,14.3-8.4,19.6-15.1c2.6-3.2,4.6-6.8,4.8-11c0.4-5.6-0.9-11.2-3.8-16.1c-1.5-2.6-3.4-5.1-5.5-7.3l-1.9-2
	c2.9-2.6,6.2-4.7,9.8-6.3c0.5-0.2,1-0.3,1.5-0.2c10.8,1,21.7,1,32.5,0.1c0.1,0,0.1,0.1,0.2,0.1c0.3,0.4,0.1,0.8,0,1.2
	c-1.3,4.8-3.1,9.5-5.3,14c-0.3,1-1.3,1.6-2.3,1.3c-0.1,0-0.2-0.1-0.3-0.1c-2-0.6-4-1.5-5.8-2.5c-4.1-2.2-7.9-5-11.8-7.5
	c-2-1.4-4.2-2.5-6.5-3.3c0.5,2.7,1,5.2,1.3,7.7c1,6.9,1.1,13.9,0.2,20.8c-0.2,1.8-0.2,1.8,1.5,2c3.3,0.5,6.5,1.1,9.8,1.7
	c2.4,0.5,4.9,0.3,7.6,0.5c-0.4,2.6-1.3,5.1-2.7,7.3c-1.6,3-2.1,3.1-5.2,1.7c-2.2-1.1-4.2-2.5-6.1-4.1c-1.7-1.5-3.5-2.9-5.5-4
	c-0.5,0.6-0.8,1.4-0.8,2.2c-2.8,10.7-8.4,20.5-16.1,28.5c-1.4,1.5-1.5,1.5-3.2,0.6c-3.5-1.8-6.1-4.9-7.2-8.6c-1,0.2-1.3,1.1-1.8,1.7
	c-2,2.6-4.6,4.8-7.4,6.5c-2.3,1.4-5.1,2-7.8,1.7c-3.3-0.3-6.1-2.6-7-5.8c-0.7-2.3-1.1-4.6-1.2-7c-0.1-1-0.1-2-0.1-3.1
	c-1,0-1.1,0.8-1.4,1.3c-2.7,4.6-5.9,8.9-9.6,12.8c-1.5,1.6-1.6,1.6-3.4,0.6c-3.1-1.6-5.4-4.3-6.7-7.5c-0.7-1.6-0.6-1.7,1-2.5
	c5.2-2.6,10-5.8,14.3-9.7c2.8-2.5,5.2-5.4,7.2-8.5c3.5-5.7,3.2-11.6,1.5-17.7c-1.4-5.3-4.4-9.7-8.1-13.6l-1.9-2
	c2.9-2.6,6.2-4.8,9.8-6.4c0.5-0.2,1-0.3,1.5-0.3c11.5,1,23.1,1,34.6,0.1c0.1,0,0.1,0.1,0.3,0.2c0,1.2-0.2,2.3-0.7,3.4
	c-1.2,4-2.8,8-4.7,11.7c-0.3,1-1.3,1.6-2.3,1.3c-0.1,0-0.2-0.1-0.3-0.1c-1.7-0.5-3.4-1.1-5-1.9c-4.1-1.9-7.9-4.4-11.7-6.6
	c-2.6-1.6-5.3-3.1-8.1-4.2C226,8.1,225.5,8,225,8.2c0.4,2.8,1.2,5.5,1.5,8.4c0.5,4.5,0.7,9.1,0.5,13.7c-0.1,2.4,0.1,2,2,2.3
	C235.4,33.5,241.7,34.8,248.5,34.8z"/>
<path class="st0" d="M167.4,59.7c-0.8,0.6-1.4,1.4-1.9,2.2c-2.7,3.9-5.9,7.4-9.5,10.5c-0.9,1-2.4,1.1-3.4,0.3
	c-2.6-1.6-4.5-4.2-5.2-7.2c-0.3-0.8,0-1.6,0.8-2c0,0,0.1,0,0.1,0c2.3-1.2,4.6-2.6,6.8-4.1c4.3-2.9,8.3-6.2,11.9-9.9
	c2-2.1,3.8-4.3,5.4-6.7c2.7-4,3.4-9,1.9-13.6c-1.1-3.5-2.9-6.7-5.2-9.5c-1.8-2.3-3.8-4.5-6-6.6c-0.9-0.9-0.9-1.4,0.1-2.2
	c2.3-1.9,4.7-3.5,7.4-4.8c0.9-0.6,2.2-0.4,2.9,0.5c2.8,3.1,4.6,7,5.1,11.1c0.9,4.4,0.9,8.9,0.1,13.3c0,0.3-0.1,0.5-0.1,0.8
	c0,0.2,0.1,0.3,0.2,0.4c0.8-0.3,1-1.1,1.3-1.8c4-7.4,6.3-15.6,6.6-24.1c0.1-2,0.1-2.1,1.7-1.9c9.5,0.8,17.6,6.3,19.5,16.6
	c0.6,4.5,0.4,9-0.8,13.4c-2,9.3-5.6,18.2-10.7,26.2c-2,3.2-4.4,6.1-7.2,8.6c-2.5,2.3-5.6,3.9-8.9,4.6c-4.1,0.7-7.1-0.6-9.3-4.2
	c-1.2-2.1-2-4.3-2.6-6.6C168.1,62,167.8,61,167.4,59.7z M201.1,37.4c-0.1-1.3-0.1-2.5-0.2-3.8c-0.7-5.9-2.8-11.2-7.4-15.1
	c-1.6-1.4-1.7-1.4-2.8,0.4c-3.7,6.4-8,12.4-12.8,18c-0.7,0.8-1.2,1.8-1.6,2.9c-1.7,5.1-3.8,10.1-6.3,14.9c-1,1.8-1,1.9,0.6,3.1
	c5.2,3.9,11.1,4.5,17.2,3.3c4.9-0.9,8-4.3,10.1-8.6C200,47.7,201.1,42.6,201.1,37.4z"/>
<path class="st0" d="M354.5,40.9c-3.6-0.6-7.4-0.3-11.3-0.6c0.6-2.2,2-3.8,3.1-5.5c0.4-0.7,1.2-0.5,1.9-0.4c2.1,0.3,4.2,0.7,6.3,1
	s2.1,0.2,2-1.9c-0.3-3.8-1.5-7.4-3.5-10.5c-2.2-3.3-4.8-6.4-7.6-9.2c-0.6-0.6-1.1-1.2-1.8-1.9c2.6-2.5,5.6-4.6,8.9-6.1
	c0.7-0.4,1.7-0.3,2.2,0.4c1.7,1.7,3,3.7,3.8,5.9c2.6,6.8,3,14.2,1.2,21.2c-0.2,0.9-0.5,1.8-0.7,2.8c2.4,0.8,4.8,1.4,7.2,1.8
	c2.2,0.6,4.4,1.1,6.7,1.7c0.7,0.2,1.3,0.5,1.8-0.3c3.4-4.9,6.3-10.1,6.5-16.3c0.1-3.3-0.8-6.6-2.5-9.4c-0.7-0.9-0.6-2.2,0.3-2.9
	c1.8-2,3.8-3.9,5.9-5.6c0.5-0.6,1.5-0.7,2.1-0.2c0.1,0.1,0.2,0.2,0.3,0.3c2.6,2.6,4,6,4.2,9.6c0.4,5-1,10.1-3.9,14.2
	c-2.9,4.1-6.2,7.9-9.8,11.4c-3.2,3.1-6,6.5-8.4,10.2c-1.4,2.1-2.5,4.4-3.4,6.8c-0.6,1.9-0.4,2.3,1.5,2.9c3.3,1,6.8-0.1,9-2.6
	c1.5-2,2.6-4.2,3.1-6.6c0.1-0.8,0.4-1.6,0.8-2.4c3.9,7.5,1,18.7-6.9,23c-2.6,1.4-5.3,2.2-8.3,1.4c-3.5-0.8-6-4-5.8-7.6
	c0.1-2.6,0.7-5.1,1.7-7.4c2-4.4,4.7-8.4,8-12c0.9-1.1,1.9-2.2,2.8-3.2c-0.3-0.8-1-0.7-1.5-0.8c-3.7-0.3-7.4-0.6-11.1-1
	c-1.1-0.3-2.2,0.4-2.4,1.5c0,0,0,0,0,0c-1.7,5-4,9.7-6.6,14.3c-3.2,5.7-7.3,10.9-12.3,15.1c-2,1.7-2.5,1.7-4.5-0.1
	c-2.1-2-3.7-4.5-4.5-7.3c-0.4-1.2,0-1.8,1.1-2.4c5.6-2.9,10.8-6.5,15.5-10.6c3.1-2.6,5.9-5.6,8.2-9
	C354.2,42.3,354.5,41.6,354.5,40.9z"/>
<path class="st0" d="M336.8,40.7c-1.4,3.1-2.6,5.7-3.8,8.4c-0.4,0.8-1,0.7-1.7,0.6c-1-0.1-2-1-2.9-0.4s-1,2.1-1.5,3.2
	c-0.5,1.4-1,2.9-1.4,4.3c-1.7,5.6-5.2,10.4-9.9,13.8c-3.4,2.8-7.9,3.9-12.2,3c-4.6-0.7-8.1-4.6-8.3-9.3c-0.3-5.1,0.4-10.2,1.8-15.1
	c2-7.6,5.3-14.7,8.7-21.7c1.8-3.6,3.6-7.1,5.3-10.7s3.5-7.4,4.1-11.4c0-0.6,0.5-1.1,1.1-1.1c0.1,0,0.2,0,0.2,0
	c5.8,0.3,11.2,1.7,15.6,5.8c5.8,5.4,7.3,16.3-0.2,23c-0.2-1-0.4-1.8-0.5-2.7c-0.8-6-4.6-9.6-9.5-12.5c-0.8-0.5-1.2-0.2-1.6,0.5
	c-4.9,7.2-10.6,13.9-15.4,21.2c-3,4.4-5.3,9.3-6.9,14.4c-0.6,1.5-0.2,3.2,1,4.3c1.2,1.3,2.7,2.1,4.4,2.5c6.6,1.4,12.8,0.8,18.5-3.2
	c1.4-0.8,2.1-2.3,1.9-3.8c-0.1-1.2,0-2.4-0.1-3.6c-0.1-1.9-0.2-2-2.1-2.1c-3-0.2-6.1-0.3-9.2-0.2c-0.8,0.1-1.5,0-2.4,0
	c-0.3-1.3,0.4-2.3,0.8-3.4c0.5-1.5,1.1-3,1.6-4.6c0.2-1,1.1-1.7,2.2-1.6c3,0,5.9,0.2,8.9,0.6C327.7,39.6,332,40.4,336.8,40.7z"/>
<path class="st0" d="M223.9,111.5c-0.2-0.5-0.1-1,0.3-1.4c1.9-3.6,3.2-7.5,4.1-11.5c0.2-1.1,0.5-1.7,1.8-1.6
	c8.4,0.3,16.6,1.5,24,5.6c10.9,5.9,13.7,14.3,10.2,25.6c-0.7,2.2-1.6,4.3-2.9,6.2c-6,9-13.7,12.6-24.4,10.6
	c-2.8-0.6-2.8-0.6-4.1,1.9c-3.4,6.6-7.5,12.7-13,17.7c-2.1,1.9-2.3,1.9-4.4,0c-1.9-1.7-3.3-3.9-4.1-6.3c-0.7-2.1-0.8-2.1,1.1-3.2
	c3.6-2.1,7.1-4.4,10.5-6.8c3.2-2.2,6.2-4.8,8.9-7.6c3.4-3.6,5.3-8.4,5.2-13.4c0.1-5.2-0.8-10.3-2.8-15.1c-0.8-2-0.9-2-3-1.8
	C228.9,110.8,226.4,111.1,223.9,111.5z M236,140.2c4.1,0.3,8.3,0.1,12.3-0.7c2-0.4,4-1,5.8-1.9c4.4-2.3,6.2-6,4.9-10.8
	c-1.8-7.1-6.8-13-13.6-15.8c-0.7-0.4-1.6-0.6-2.4-0.6C242.2,120.6,239.8,130.7,236,140.2z"/>
<path class="st0" d="M220.7,118.5c-0.2,3.7-0.9,7.3-2,10.8c-2.5,9.1-6.5,17.7-12,25.4c-2.3,3.4-5.2,6.3-8.5,8.7
	c-2.8,2.2-6.3,3.4-9.9,3.4c-5.2-0.1-8.6-3.1-9.5-8.1c-0.8-4.4,0-8.8,0.8-13.1c1.5-6.7,3.7-13.2,6.6-19.4c2.3-5,4.7-10,7.1-15
	c1.9-4.1,3.9-8.1,4.7-12.6c0.2-1.1,0.8-1.3,1.7-1.3c4.8,0.1,9.4,1.7,13.3,4.4C218.4,105.6,220.9,111,220.7,118.5z M213.4,129.4
	c0.1-1.7-0.1-3.4-0.5-5.1c-0.8-5.1-3.4-9.7-7.2-13.1c-1.5-1.3-1.6-1.3-2.6,0.3c-3.5,5.4-7.3,10.6-11.1,15.8
	c-2.5,3.3-4.7,6.8-6.8,10.4c-1.6,3-2.9,6.1-3.8,9.4c-0.4,1.2-0.1,2.6,0.7,3.5c1.7,2.1,4.2,3.5,6.9,3.9c10.1,1.9,18.4-5.2,21.4-11.4
	C212.4,138.8,213.4,134.1,213.4,129.4z"/>
<path class="st0" d="M151.5,47.2c-0.4,2.7-1,5.4-2,7.9c-1.4,4.3-3.6,8.3-6.6,11.6c-3.4,3.9-8,6.4-13.1,7.1c-1.7,0.2-3.4,0.2-5.1-0.1
	c-4.8-0.8-8.3-4.9-8.4-9.8c-0.2-5.5,0.6-11,2.3-16.3c2.3-7.7,5.7-14.9,9.2-22c1.8-3.7,3.7-7.5,5.4-11.2c1.4-2.8,2.4-5.8,3-8.9
	c0-0.7,0.5-1.3,1.2-1.3c0.1,0,0.2,0,0.3,0c5.4,0.3,10.6,1.6,14.9,5.2c6.7,5.8,7.4,16,1.6,22.7c-0.2,0.2-0.4,0.4-0.6,0.6
	c-0.1,0.1-0.3,0.1-0.6,0.1c-0.1-0.4-0.1-0.8-0.2-1.2c-0.5-6.3-4-10.6-9.3-13.7c-0.8-0.5-1.4-0.7-2.1,0.3
	c-4.8,7.1-10.4,13.6-15.1,20.7c-3,4.5-5.5,9.4-7.1,14.5c-0.7,1.8-0.1,3.8,1.4,4.9c1.7,1.5,3.9,2.5,6.2,2.6c7.1,1,14.3-1.6,19-7
	c1.5-1.6,2.8-3.4,4-5.2C150.4,48.5,150.6,47.7,151.5,47.2z"/>
<path class="st0" d="M406.4,15c-4.1,0.9-7.7,2.5-11.7,3c-0.5-0.7-0.2-1.4-0.1-2c0.6-3.3,1.2-6.7,1.9-10c0.3-1.7,0.4-1.8,2.1-1.6
	c5.1,0.6,10.3,0.7,15.5,0.5c1.5-0.1,3-0.2,4.7-0.3c-0.3,3-0.8,6-1.4,8.9c-2.5,13.2-5.7,26.3-10.8,38.9c-2.9,7.2-6.8,14-11.5,20.3
	c-1.3,1.8-2.8,3.5-4.3,5c-1.8,1.7-1.9,1.7-3.5-0.3c-2.3-2.9-4-6.1-5-9.7c-0.7-2.2-0.6-2.2,1.6-2.6s4.6-1,6.9-1.6
	c1.2-0.3,2.3-0.7,3.4-1.1c5.1-1.8,8.8-6.1,10-11.3c1-3.9,1.6-8,1.9-12c0.6-7.6,0.8-15.3,0.6-23C406.6,15.7,406.5,15.3,406.4,15z"/>
<path class="st0" d="M446.9,102.2c-0.1,0.1-0.3,0.3-0.4,0.3c-0.3-0.2-0.2-0.4,0-0.6L446.9,102.2z"/>
</svg>
