<svg id="Layer_1" data-name="Layer 1" xmlns="http://www.w3.org/2000/svg" viewBox="0 0 453.91 193.88"><defs><style>.cls-1{fill:#332f1b;}</style></defs><path class="cls-1" d="M171.86,157.26a20.38,20.38,0,0,0,8.39,8.35,39.83,39.83,0,0,0,13.2,4.34,73.72,73.72,0,0,0,21.13.61c16.33-2.09,28.4-13.18,31.83-29.19,1.43-6.64,1.17-13.32.6-20a63,63,0,0,0-1.4-8.54c-.17.28-.34.56-.5.84-8.5,15.63-21.73,23.62-39.45,24.06a35.21,35.21,0,0,1-9.57-1.18c-8.6-2.25-12.33-9-9.61-17.49a32.78,32.78,0,0,1,4.17-8.4c3.25-4.75,6.92-9.2,10.34-13.84,2.1-2.87,4-5.84,6-8.77a2.33,2.33,0,0,0,.41-1.16c-.31.22-.63.43-.93.66a250.83,250.83,0,0,0-31.83,29.82c-5.8,6.35-11.84,12.45-19.39,16.79a33.48,33.48,0,0,1-24.7,4c-5.16-1.16-9.35-3.85-11.43-9.05a13.4,13.4,0,0,1,.52-11.07,120.13,120.13,0,0,1,5.85-10.6c3.91-6.46,8-12.84,11.94-19.26a3.83,3.83,0,0,0,.53-1.41c-.31.26-.64.5-.92.78Q127.57,97.23,118,107c-6.29,6.37-12.48,12.84-19,19A50.54,50.54,0,0,1,81,137.49a34.36,34.36,0,0,1-21.92.88c-8.19-2.49-12.23-9.21-10.9-17.7a26.5,26.5,0,0,1,3.53-10c2-3.26,4.14-6.47,6.36-9.59C61,97,63.86,93,65.85,88.37a26.59,26.59,0,0,0,2.16-10,9.48,9.48,0,0,0-3.68-7.92,50.33,50.33,0,0,0-5.24-3.29c-.36.83-.59,1.35-.81,1.87-4.87,11.74-11.22,22.67-18,33.39-5.68,9-11.28,18.09-16.92,27.13-1.44,2.32-2.76,4.73-4.4,6.91a11.49,11.49,0,0,1-7.09,4.73,12.13,12.13,0,0,1-7.88-1C1.29,138.85-.4,135,.37,131.14a27.72,27.72,0,0,1,2.52-7.75Q8,114,13.65,105C20,94.87,26.64,84.91,33,74.75a113.12,113.12,0,0,0,8.87-18.54,43,43,0,0,1,4.51-8.64c3.34-4.87,7.31-6,12.94-4.19a46.79,46.79,0,0,1,13.83,7.76A71.68,71.68,0,0,1,88,66.32C93.89,74.5,94.3,83.07,89.83,92,87,97.7,82.69,102.37,78.2,106.89c-2.82,2.83-5.48,5.83-8.06,8.89a47.27,47.27,0,0,0-3.24,5,6.74,6.74,0,0,0,5.49.52c3.7-.89,6.8-3,9.73-5.28,8.5-6.72,15.87-14.61,23.32-22.43,7.73-8.11,15.38-16.3,24.18-23.31,4.69-3.74,9.62-7.08,15.55-8.56,3.59-.89,7.21-1.13,10.72.32,6.09,2.5,9.1,8,7.63,14.58a37,37,0,0,1-3.23,9.19c-2.93,5.55-6.27,10.89-9.52,16.27s-6.68,10.75-10,16.13c-.32.51-.54,1.09-1,2,1.58-.48,2.92-.78,4.16-1.29a36.17,36.17,0,0,0,11.66-8.21c5.46-5.47,10.78-11.08,16.13-16.65,7.61-7.93,15.67-15.33,25.13-21,5.53-3.34,11.35-5.92,17.95-6.37,9-.62,15.82,7.33,13.23,16a82.11,82.11,0,0,1-5.38,12.57c-3.13,6.33-6.52,12.53-9.78,18.79-.52,1-.9,2.09-1.48,3.46a46.3,46.3,0,0,0,4.83-1.11c10.87-3.82,17.39-11.62,20.34-22.56a21.29,21.29,0,0,0-1.5-15.73c-1.59-3.12-3.11-6.3-4.49-9.52a14.13,14.13,0,0,1-.88-10A11.4,11.4,0,0,1,239,51c7.52-1.22,14.26,4,17.24,11.65,1.91,4.92,1.89,10,1.31,15.11-.32,2.83-1,5.63-1.46,8.44a2.48,2.48,0,0,0,.08,1.18Q260,98.71,264,110.05c0,.15.12.29.24.56,1.12-3.7,2.14-7.31,3.32-10.86,8.14-24.57,17-48.86,27.25-72.64a100.08,100.08,0,0,1,6.89-12.82,20.19,20.19,0,0,1,5.05-5.42c3.67-2.74,7.71-2.18,11.42,0,3.39,2,4.15,5.41,3.95,9.06-.3,5.38-2.1,10.42-4.21,15.28q-9,20.72-18.32,41.29c-5.58,12.35-11.18,24.69-15.93,37.39-.14.37-.26.74-.38,1.11l.3.2c1.79-2.16,3.75-4.21,5.35-6.51,4.64-6.68,9.17-13.43,13.68-20.19,4.89-7.33,10-14.44,16.7-20.3,5.28-4.64,11.14-8.14,18.19-9.31a25.28,25.28,0,0,1,14.21,1.28,17.45,17.45,0,0,1,10.71,19.11,35.17,35.17,0,0,1-4.26,12.18c-2.37,4.2-4.92,8.29-7.49,12.36-3.53,5.61-6.86,11.32-8.84,17.7-.11.35-.21.7-.29,1.06,0,.07,0,.15.06.3a10.11,10.11,0,0,0,7.25-1.28,41.91,41.91,0,0,0,9.77-8.51c6.56-7.52,12.93-15.2,19.46-22.73,4.83-5.56,9.81-11,14.69-16.48a5.19,5.19,0,0,0,1.16-1.95c2-7.4,3.89-14.83,5.91-22.23a91,91,0,0,1,3-9.46c1.93-4.91,4.9-9,10-11.26a13.18,13.18,0,0,1,8.28-.8c4.26,1,6.8,4.64,6.6,9.36a22.87,22.87,0,0,1-2.68,9.85c-1.72,3.25-3.58,6.42-5.37,9.62l-.68,1.17c.5,0,.88.08,1.27.08h14.48a12.92,12.92,0,0,1,5.84,1.14,6.78,6.78,0,0,1,3.57,4c2.08,6-1.25,11.74-7.74,12.69a51.12,51.12,0,0,1-9.9.18c-4.12-.21-8.21-.74-12.47-1.14-.54,1.47-1.13,3-1.68,4.59a212.15,212.15,0,0,0-8.88,31,23,23,0,0,0,.1,10.69c.09.31.2.62.39,1.23a57.46,57.46,0,0,0,5.52-2.64c4.57-2.8,7.88-6.86,10.6-11.38,2-3.35,3.8-6.85,5.59-10.34a23.29,23.29,0,0,1,5.37-7.52,10.87,10.87,0,0,1,11.5-1.47c3.83,2,5.54,5.62,4.89,10.17a35.83,35.83,0,0,1-4.87,13.13,62.23,62.23,0,0,1-23.15,23.3c-7.84,4.42-16.11,5.77-24.75,2.54a18.1,18.1,0,0,1-11.94-16.85A44,44,0,0,1,383.74,108a1.48,1.48,0,0,0-.06-1c-.29.39-.58.78-.88,1.16-4.35,5.52-8.58,11.14-13.1,16.52a41.47,41.47,0,0,1-13.76,10.88c-7.61,3.65-15.48,4.28-23.42,1.24-7.63-2.92-11.41-9.65-10.42-17.74.78-6.38,3.08-12.25,5.72-18,3.18-7,6.45-13.92,9.69-20.88a3.06,3.06,0,0,0,.31-1.47c-1.15.52-2.36,1-3.46,1.58-5.48,3.06-9.8,7.45-13.84,12.16a181.65,181.65,0,0,0-13.75,19.08c-3.11,4.74-6.28,9.47-9.76,14a55.54,55.54,0,0,1-7.89,8.19,20.39,20.39,0,0,1-18.42,4.64,23.46,23.46,0,0,1-3.42-1.27c-.62,3.62-1,7.31-1.9,10.89-4.54,18.89-16.16,31.39-34.49,37.7a73,73,0,0,1-21.29,3.74,97.49,97.49,0,0,1-24.75-2c-8.42-1.86-16.39-4.82-23.17-10.34-5.7-4.64-9.42-10.48-10.36-17.89a19.4,19.4,0,0,1,4.77-15.69,27.63,27.63,0,0,1,18.19-9.65,12.41,12.41,0,0,1,9,2,8.57,8.57,0,0,1,.9,13.19A53.25,53.25,0,0,1,177,154.1C175.36,155.2,173.63,156.18,171.86,157.26Z"/><path class="cls-1" d="M173,55.24c-2.69-.07-5.55-.56-7.81-2.65-3.51-3.27-4.08-8.36-1.43-12.92a31.71,31.71,0,0,1,12.77-12.2A21.88,21.88,0,0,1,184.45,25c5-.57,8.33,1.81,10.71,5.82,2.28,3.84,1.55,7.66-1.07,11a44.1,44.1,0,0,1-12.15,11.1A18,18,0,0,1,173,55.24Z"/></svg>