<svg id="Layer_1" data-name="Layer 1" xmlns="http://www.w3.org/2000/svg" xmlns:xlink="http://www.w3.org/1999/xlink" viewBox="0 0 19.26 28.44"><defs><style>.cls-1{fill:none;}.cls-2{clip-path:url(#clip-path);}.cls-3{fill:#231916;}</style><clipPath id="clip-path"><rect class="cls-1" x="0.04" y="0.04" width="19.21" height="28.4"/></clipPath></defs><g class="cls-2"><path class="cls-3" d="M16.31,3.54c.12-.23.27-.31.51-.2.5.24.78,1.17.78,2s-.12,1-.55,1.32L15.34,7.76a1.08,1.08,0,0,0-.42.66,11.26,11.26,0,0,1,1.39-4.88M3.62,10.71,3.34,7.37c0-.34.12-.46.43-.5A3.78,3.78,0,0,0,7.06,4.5C7.6,3.37,8.3,2.56,8.8,2.56c.27,0,.35,0,.39.43a22.23,22.23,0,0,1-.12,7.28L9,10.85c0,.23-.35.35-.77.35a3.33,3.33,0,0,0-1.24-.31,14,14,0,0,0-2.86.31c-.31.09-.43-.07-.46-.49M15,2.45l.39.16a43.11,43.11,0,0,0-1.78,7.9l-.27,0a41.79,41.79,0,0,1,1.66-8m-1.08-.4.39.08c-.62,2.73-1.09,5.59-1.43,8.23l-.31,0c.34-2.65.84-5.6,1.35-8.27m-3.53.13.35-.11a33.09,33.09,0,0,1-.3,8.06h-.27a36.66,36.66,0,0,0,.22-8m2.44-.31.39,0c-.23,2-.7,5.54-1.08,8.37l-.31,0c.31-2.83.85-6.39,1-8.37m-1.2,0,.39,0a59.86,59.86,0,0,1-.73,8.29H11a76.81,76.81,0,0,0,.61-8.25m-10,4.77A167,167,0,0,1,0,24.46a.46.46,0,0,0,.43.43,1.37,1.37,0,0,0,.66-.19l2.1-10.17c.08-.43.23-.47.7-.39a15.82,15.82,0,0,0,2.39.46l.23,6.24a2.23,2.23,0,0,0,.82.2.86.86,0,0,0,.73-.31l.63-6c1.86.54,2.28,1.12,2.56,4.8L12,28.09a1.28,1.28,0,0,0,.86.35,1.35,1.35,0,0,0,.93-.47l.73-12.09c.5,1.82,1.05,4.61,1.47,7a1.35,1.35,0,0,0,1.2.12c-.31-2.64-1.08-7.52-1.82-11.12l.74-3a1,1,0,0,1,.54-.66c1.77-.81,2.59-1.36,2.59-3.64,0-2-2.05-4.54-6.5-4.54-3.95,0-5.7,1.4-6.59,3.11A4.21,4.21,0,0,1,3.81,5.39l-1.63.47c-.59.2-.62.39-.62.82"/></g></svg>