<svg id="Layer_1" data-name="Layer 1" xmlns="http://www.w3.org/2000/svg" viewBox="0 0 473.94 248.99"><defs><style>.cls-1{fill:#332f1b;}</style></defs><path class="cls-1" d="M287.4,167.37a57,57,0,0,0,5.32-5.34c7.9-10.24,13.42-21.84,18.85-33.48,7.88-16.91,15.75-33.83,27.26-48.7,5.53-7.14,11.85-13.57,20.84-15.89a42,42,0,0,1,15.24-1.14c8.42,1,14.51,9.08,14.87,18.09.48,12-5,21.7-12.94,30-6.82,7.12-14.5,13.42-21.48,20.4-5.83,5.83-11.31,12-13.2,20.47a12.56,12.56,0,0,0,7.93,14.87c9.07,3.48,21.64,1.81,27.9-8a120.58,120.58,0,0,0,10.71-21.74C394.36,122.13,399.46,107,410.19,95c6.29-7,8.45-15.67,12.46-23.61,5.18-10.27,10.54-20.46,15.9-30.64a11.23,11.23,0,0,1,3.17-4.13c1.27-.85,3.71-1.55,4.63-.89,1.13.8,2.08,3.41,1.6,4.64a85.46,85.46,0,0,1-5.71,11c-4.17,7.22-8.47,14.36-12.67,21.56-.64,1.09-1.06,2.32-2,4.53,6,0,11.16.07,16.36,0,4.61-.08,9.22-.41,13.83-.54,2.85-.08,5.27,1,5.4,4.08.13,2.92-2.28,4.37-4.85,4.34-8-.11-16.09.1-24-1-9-1.25-8.95-1.83-12,6.81-3.86,11-8,21.85-11.31,33A81.83,81.83,0,0,0,407.7,157c.52,4.54,2.22,8.45,6.86,10,4.8,1.57,9.48,1.27,13.7-2.11,6.74-5.4,10.55-12.64,12.53-20.76,2.25-9.26,3.87-18.68,5.84-28a7.55,7.55,0,0,1,1.43-3.27c1.41-1.63,4.63-1,5.51,1.15a7.45,7.45,0,0,1,.58,3.83c-2.19,13.66-4.35,27.37-10.78,39.85-3.64,7.07-8.55,13.15-16.31,16-13.54,5-25.7-2.66-27.18-17-1.28-12.36.94-24.28,5.11-35.89,1.35-3.78,2.76-7.53,4.14-11.3l-.73-.35c-1.64,3.19-3.52,6.28-4.87,9.59-4.3,10.55-8.29,21.23-12.63,31.77-3.67,8.93-9,16.62-17.89,21.19s-18,5-27.05.93c-12.13-5.52-15.39-17.6-8.53-30.3,5.54-10.24,13.9-18,22.5-25.59,7.62-6.7,14.82-13.79,19.2-23.17A23.45,23.45,0,0,0,381,79.07a10.56,10.56,0,0,0-9.93-8.94c-8.22-.74-14.36,3.33-19.89,8.6-8.92,8.51-15.59,18.72-21.19,29.59-7.77,15.1-15.15,30.41-22.92,45.52a118.39,118.39,0,0,1-7.94,12.48,26.42,26.42,0,0,1-4.4,4.87c-4.3,3.74-8.94,6.12-14.95,2.23-.41,1.67-.81,3-1.05,4.31-2.49,14-6.94,27.16-15.32,38.84-9.16,12.75-21.77,19.67-37,22.42a78.31,78.31,0,0,1-34.3-1.18c-13.43-3.55-25.15-9.83-32.31-22.5-8.61-15.22.06-37,16.78-42.1a52.2,52.2,0,0,1,7.37-1.73c2.38-.38,4.47.48,5.34,2.87s-.46,4.18-2.36,5.24a29,29,0,0,1-6.38,2.51c-14.65,4-20.38,19.59-11.74,32.14,6,8.78,14.75,13.77,24.78,16.28,18.38,4.61,36.26,4,52.53-7.1,10.73-7.29,16.86-18.07,21.06-29.94,7.13-20.14,7.48-41.13,7.11-62.16a9.14,9.14,0,0,0-.52-1.63c-.78,1.62-1.36,2.68-1.82,3.8-7.39,17.92-18.82,32.07-37.84,38.27-11,3.59-22.2,3.86-31.76-4.43-6-5.22-7.18-12-5.5-19.52,2-8.74,7.7-15,14.27-20.42,8.21-6.78,16.91-13,25.19-19.64,7.58-6.14,13.34-13.66,15.83-23.31a41,41,0,0,0,.89-4.52c.64-4.64.43-4.74-4.37-4-16.49,2.4-28.63,11.67-37.51,25-8.25,12.4-15.42,25.52-23,38.33-5.39,9.06-10.75,18.16-18.39,25.59-7.23,7-15.21,12.13-26,11-12.21-1.26-19.18-11.43-15.91-23.27,3-10.66,10.08-18.4,17.63-25.77,12.29-12,24-24.5,32.88-39.3A50.08,50.08,0,0,0,185.15,70c-2.39.62-4.25,1-6,1.59-9.67,3.44-17.27,9.92-24.35,17.05-13,13.12-23,28.41-32.13,44.41-7.07,12.39-14.43,24.67-25,34.6-8.13,7.67-17.71,10.76-28.8,8.4s-16.17-13.5-13.9-24c2.12-9.85,8.72-16.87,15.09-23.94,7.48-8.33,15.54-16.13,23-24.43a41.76,41.76,0,0,0,9.45-16c3.61-12.13.31-19-11.77-22.74-4.47-1.39-9.26-1.75-13.91-2.55-2.14-.36-3.23.53-4.21,2.61C63.56,84.33,54.43,103.67,45,122.83,36.45,140,27.5,157,18.74,174.1a10.27,10.27,0,0,1-1.14,2c-1.64,1.93-3.5,3.5-6.24,2.16s-2.66-3.83-1.66-6q4.53-9.67,9.55-19.12C31.06,131,43.15,109,54.73,86.71c4.43-8.54,7.78-17.65,11.59-26.51,2-4.59,4-5.72,9-5.38C84.79,55.48,94,57,102.38,62c10.33,6.15,12.42,14.59,9.32,25.77-3,10.85-10.75,18.72-18.17,26.69-7.92,8.52-16.07,16.84-23.75,25.56a38.51,38.51,0,0,0-6.1,10.44c-2.25,5.27-2,10.63,2,15.13,4.12,4.66,9.61,5.13,15.19,3.63,7.34-2,12.38-7.25,17-12.9,9.74-11.85,17-25.3,24.83-38.38,10.58-17.61,22.76-33.91,39.44-46.35,5.52-4.11,11.51-7.31,18.39-8.44,8.4-1.37,13.27,3.34,12.07,11.74-1.12,7.74-5.58,14-9.75,20.28-8.82,13.37-20.07,24.64-31.15,36.09a135.35,135.35,0,0,0-12.84,16.22c-1.58,2.23-2.28,5.21-2.87,8-.9,4.19-.16,8.24,3.41,11A11.6,11.6,0,0,0,152.21,168a48.16,48.16,0,0,0,12.28-9.09c10-10.49,16.64-23.34,23.68-35.89,9.05-16.13,18.93-31.72,33.3-43.81a44.81,44.81,0,0,1,29.95-11c6.85.07,10,3.4,9.88,10.29-.17,9-3.83,16.58-9.07,23.55-7.08,9.44-16.37,16.44-25.84,23.29-7,5.1-13.55,10.84-18.24,18.33-3.22,5.14-4,10.54-1,15.9,2.93,5.15,7.89,7,13.65,7,12.45,0,22-6.19,30.2-14.73a72.43,72.43,0,0,0,19-36.95c.36-1.83.72-3.66,1.1-5.49,2.33-11.26-.17-21.66-5-31.89a16,16,0,0,1,.43-15.24c2.16-3.76,5.23-5.14,9.07-4.42,3.1.58,6,3.74,6.68,7.4,1.61,8.87.14,17.44-2.3,26a30.59,30.59,0,0,0-1,9.64c.73,15.89,1.68,31.78,2.55,47.67,0,.73.1,1.46.21,3.18a32.27,32.27,0,0,0,1.59-3.36c3.77-12.38,7.3-24.84,11.31-37.14a477.61,477.61,0,0,1,24.12-60.1c5.57-11.54,15.84-31.93,25-42.17,1.89-1.91,4.52-3.73,7-1.74,2.82,2.25.85,5.13-.56,7.39-3.31,5.3-6.87,10.46-10.33,15.67a260.07,260.07,0,0,0-26.15,51.53c-5.63,14.74-11.14,29.56-16.06,44.55-4.14,12.59-7.38,25.49-11,38.26a8.42,8.42,0,0,0,0,2.19ZM274.05,79.16l1.64-.16a89,89,0,0,0-.08-10.83c0-.79-.64-2.29-1.68-2.29s-1.66,1.17-1.66,2.44C272.27,74.05,273.07,76.93,274.05,79.16Z"/><path class="cls-1" d="M200,44.45c0-1.73,1.73-4.7,2.95-6.72,3.81-6.34,8-12.32,15.73-14.51,2.59-.74,5-.32,6.48,1.84,1.57,2.37.33,4.56-1.61,6.36-5.43,5.07-10.72,10.28-16.33,15.14-1.23,1.07-2.75,1.13-4.54,1.13C201.05,47.69,200,46.17,200,44.45Z"/></svg>